<?xml version="1.0" encoding="UTF-8"?>
<svg width="40px" height="38px" viewBox="0 0 40 38" version="1.1" xmlns="http://www.w3.org/2000/svg" xmlns:xlink="http://www.w3.org/1999/xlink">
    <!-- Generator: Sketch 50 (54983) - http://www.bohemiancoding.com/sketch -->
    <title>athlete-icon</title>
    <desc>Created with Sketch.</desc>
    <defs></defs>
    <g id="athlete-icon" stroke="none" stroke-width="1" fill="none" fill-rule="evenodd">
        <g id="Page-1" transform="translate(1.000000, 2.000000)">
            <path d="M23.0464571,12.1184863 L30.3612104,21.3954041 L27.0729766,24.9040342 L20.0868987,19.1750616 C19.6832104,18.8437603 19.082613,18.8806781 18.7243273,19.2584863 L16.0756779,22.0532123 C15.928613,22.2085548 15.9029506,22.4386918 16.0130026,22.6204041 L16.9995221,24.2538973 L13.5494182,26.4291712 L10.4230545,22.0853356 C10.2068987,21.7851986 10.1856779,21.3925274 10.3682753,21.0722534 L13.077626,16.3084178" id="Stroke-1" stroke="#231F20" stroke-width="0.5"></path>
            <polyline id="Stroke-3" stroke="#231F20" stroke-width="0.5" points="30.3611117 21.3952123 36.7199429 29.2649384 34.5401247 31.2642534 27.0728779 24.9038425"></polyline>
            <path d="M36.1439221,30.9959521 L37.6244416,33.2335548" id="Stroke-5" stroke="#231F20" stroke-width="0.5"></path>
            <polyline id="Stroke-7" stroke="#231F20" stroke-width="0.5" points="32.6831091 29.6971164 33.700226 28.8096507 35.3376805 27.3818425"></polyline>
            <path d="M11.2218442,12.2392603 C8.83672727,11.8844658 5.6925974,10.5362466 5.51444156,8.78960274 C5.20205195,5.73021918 9.77636364,3.60384932 13.0093247,3.18576712 C16.3676364,2.75138356 20.4602857,3.37658904 22.6815584,5.59932877 C23.638961,6.55775342 24.3274026,7.74152055 24.2992727,8.99049315 C24.1981039,13.3952192 16.8458442,15.9396712 7.54571429,17.3497397" id="Stroke-9" stroke="#231F20" stroke-width="0.5"></path>
            <polyline id="Stroke-11" stroke="#231F20" stroke-width="0.5" points="13.5493688 26.4289795 17.9667455 32.023226 20.9277844 30.5052808 16.9994727 24.2537055"></polyline>
            <path d="M16.7925948,30.536637 L19.7585688,28.721911" id="Stroke-13" stroke="#231F20" stroke-width="0.5"></path>
            <polyline id="Stroke-15" stroke="#231F20" stroke-width="0.5" points="15.9508701 33.4915479 18.0161948 34.4212055 21.9563506 32.3437397"></polyline>
            <path d="M10.3546052,13.6284726 L4.92899481,33.0529932 C4.84263117,33.3608014 4.60426753,33.6072397 4.29335844,33.7098425 L0.836838961,34.8480616 C0.517046753,34.9535411 0.18541039,34.7224452 0.18541039,34.3945 L0.18541039,33.1632671 C0.18541039,32.9604589 0.31618961,32.7797055 0.512605195,32.7121027 L5.49899481,30.9812808" id="Stroke-17" stroke="#231F20" stroke-width="0.5"></path>
            <path d="M12.2088571,3.69576027 C12.2088571,1.75397945 13.8295325,0.179938356 15.8277403,0.179938356 C17.8269351,0.179938356 19.4471169,1.75397945 19.4471169,3.69576027 C19.4471169,5.6375411 17.8269351,7.21158219 15.8277403,7.21158219 C13.8295325,7.21158219 12.2088571,5.6375411 12.2088571,3.69576027" id="Fill-19" fill="#FEFEFE"></path>
            <path d="M12.2088571,3.69576027 C12.2088571,1.75397945 13.8295325,0.179938356 15.8277403,0.179938356 C17.8269351,0.179938356 19.4471169,1.75397945 19.4471169,3.69576027 C19.4471169,5.6375411 17.8269351,7.21158219 15.8277403,7.21158219 C13.8295325,7.21158219 12.2088571,5.6375411 12.2088571,3.69576027 Z" id="Stroke-21" stroke="#231F20" stroke-width="0.5"></path>
        </g>
    </g>
</svg>