<?xml version="1.0" encoding="UTF-8"?>
<svg width="83px" height="22px" viewBox="0 0 83 22" version="1.1" xmlns="http://www.w3.org/2000/svg" xmlns:xlink="http://www.w3.org/1999/xlink">
    <!-- Generator: Sketch 50.2 (55047) - http://www.bohemiancoding.com/sketch -->
    <title>curv-logo</title>
    <desc>Created with Sketch.</desc>
    <defs></defs>
    <g id="curv-logo" stroke="none" stroke-width="1" fill="none" fill-rule="evenodd">
        <g id="curv_grey" fill="#000000" fill-rule="nonzero">
            <g id="Group" transform="translate(33.280193, 10.607143)">
                <path d="M7.58278205,0.0520816327 C8.97667581,0.0520816327 12.2662651,0.390612245 12.2662651,2.59106122 L12.2662651,4.11444898 L8.19609531,4.11444898 C8.58638556,2.25253061 7.6385378,2.36537415 6.9694688,2.36537415 C4.85075028,2.36537415 4.34894853,6.87911565 4.34894853,7.27406803 C4.34894853,8.06397279 4.73923878,8.91029932 5.51981929,8.91029932 C6.80220155,8.91029932 7.0809803,7.55617687 7.35975905,6.87911565 L11.6529518,6.87911565 C11.2626616,10.0387347 6.91371305,11.2800136 4.90650603,11.2800136 C1.95145126,11.2800136 0.223023002,10.0387347 0.223023002,7.27406803 C0.223023002,2.64748299 3.45685652,0.0520816327 7.58278205,0.0520816327 Z" id="Shape"></path>
                <path d="M25.1458434,0.672721088 L22.9713692,10.941483 L19.2914896,10.941483 L19.6260241,9.36167347 L19.5702684,9.3052517 C18.5109091,10.5465306 17.2285269,11.1671701 15.6673659,11.1671701 C14.7195181,11.1671701 14.0504491,10.941483 13.5486473,10.4336871 C13.1026013,9.92589116 12.8795783,9.36167347 12.8795783,8.68461224 C12.8795783,8.2332381 12.9910898,7.38691156 13.2698686,6.14563265 L14.4407393,0.61629932 L18.3436419,0.61629932 L17.2842826,5.63783673 C17.1170154,6.37131973 17.0612596,6.82269388 17.0055039,6.93553741 C17.0055039,7.04838095 16.9497481,7.21764626 16.9497481,7.38691156 L16.9497481,7.44333333 C16.9497481,8.00755102 17.1727711,8.28965986 17.6745729,8.28965986 C18.2878861,8.28965986 18.7896879,8.00755102 19.1799781,7.4997551 C19.6260241,6.93553741 19.9605586,6.20205442 20.1278259,5.18646259 L21.0756736,0.729142857 L25.1458434,0.672721088 Z" id="Shape"></path>
                <path d="M35.1818785,0.785564626 L33.732229,3.83234014 C33.4534502,3.77591837 33.1746715,3.7194966 32.9516485,3.7194966 C32.2268237,3.7194966 31.6135105,4.00160544 31.1117087,4.50940136 C30.6656627,5.07361905 30.2753725,5.91994558 30.0523495,7.10480272 L29.271769,10.941483 L25.3688664,10.941483 L27.5433407,0.672721088 L31.1674645,0.672721088 L30.7214185,2.70390476 L30.7771742,2.76032653 C31.3904875,1.85757823 31.8922892,1.23693878 32.394091,0.954829932 C32.840137,0.672721088 33.3419387,0.503455782 33.8994962,0.503455782 C34.2897865,0.447034014 34.7358325,0.559877551 35.1818785,0.785564626 Z" id="Shape"></path>
                <polygon id="Shape" points="46.8905861 0.672721088 40.5344305 10.941483 37.077574 10.941483 35.1261227 0.672721088 38.8060023 0.672721088 39.4193155 7.21764626 39.4193155 7.21764626 42.8204163 0.672721088"></polygon>
                <path d="M48.5632586,0.729142857 C48.7305258,0.729142857 48.8977931,0.785564626 49.0650603,0.841986395 C49.2323276,0.954829932 49.3438391,1.06767347 49.4553506,1.23693878 C49.5668621,1.40620408 49.6226178,1.57546939 49.6226178,1.80115646 C49.6226178,1.97042177 49.5668621,2.13968707 49.4553506,2.30895238 C49.3438391,2.47821769 49.2323276,2.59106122 49.0650603,2.70390476 C48.8977931,2.8167483 48.7305258,2.8167483 48.5632586,2.8167483 C48.3959913,2.8167483 48.2287241,2.76032653 48.0614568,2.70390476 C47.8941896,2.59106122 47.7826781,2.47821769 47.6711666,2.30895238 C47.5596551,2.13968707 47.5038993,1.97042177 47.5038993,1.80115646 C47.5038993,1.63189116 47.5596551,1.46262585 47.6711666,1.23693878 C47.7826781,1.06767347 47.8941896,0.954829932 48.0614568,0.841986395 C48.2287241,0.729142857 48.3959913,0.729142857 48.5632586,0.729142857 Z M48.5632586,0.898408163 C48.3959913,0.898408163 48.2844798,0.954829932 48.1172126,1.0112517 C48.0057011,1.06767347 47.8941896,1.18051701 47.7826781,1.34978231 C47.7269223,1.51904762 47.6711666,1.63189116 47.6711666,1.80115646 C47.6711666,1.97042177 47.7269223,2.08326531 47.7826781,2.25253061 C47.8384338,2.36537415 47.9499453,2.47821769 48.1172126,2.59106122 C48.2844798,2.64748299 48.3959913,2.70390476 48.5632586,2.70390476 C48.7305258,2.70390476 48.8420373,2.64748299 49.0093046,2.59106122 C49.1765718,2.53463946 49.2323276,2.42179592 49.3438391,2.25253061 C49.3995948,2.13968707 49.4553506,1.97042177 49.4553506,1.80115646 C49.4553506,1.63189116 49.3995948,1.51904762 49.3438391,1.34978231 C49.2880833,1.18051701 49.1765718,1.12409524 49.0093046,1.0112517 C48.8420373,0.898408163 48.7305258,0.898408163 48.5632586,0.898408163 Z M48.1172126,2.36537415 L48.1172126,1.23693878 L48.5075028,1.23693878 C48.6190143,1.23693878 48.7305258,1.23693878 48.7862816,1.29336054 C48.8420373,1.29336054 48.8977931,1.34978231 48.9535488,1.40620408 C49.0093046,1.46262585 49.0093046,1.51904762 49.0093046,1.57546939 C49.0093046,1.63189116 48.9535488,1.74473469 48.8977931,1.80115646 C48.8420373,1.85757823 48.7862816,1.914 48.6747701,1.914 C48.7305258,1.914 48.7305258,1.97042177 48.7862816,1.97042177 C48.8420373,2.02684354 48.8977931,2.08326531 48.9535488,2.19610884 L49.0650603,2.42179592 L48.8420373,2.42179592 L48.7305258,2.25253061 C48.6747701,2.08326531 48.5632586,2.02684354 48.5632586,1.97042177 C48.5075028,1.97042177 48.5075028,1.914 48.3959913,1.914 L48.2844798,1.914 L48.2844798,2.42179592 L48.1172126,2.42179592 L48.1172126,2.36537415 Z M48.2844798,1.68831293 L48.5075028,1.68831293 C48.6190143,1.68831293 48.6747701,1.68831293 48.7305258,1.63189116 C48.7862816,1.57546939 48.7862816,1.57546939 48.7862816,1.51904762 C48.7862816,1.46262585 48.7862816,1.46262585 48.7305258,1.40620408 L48.6747701,1.34978231 C48.6190143,1.34978231 48.5632586,1.34978231 48.5075028,1.34978231 L48.2844798,1.34978231 L48.2844798,1.68831293 Z" id="Shape"></path>
            </g>
            <path d="M36.2894608,1.23922708 C35.3406586,-0.802045587 31.4338262,-0.0296721469 26.4665678,1.4599052 L25.4061418,0.466853636 C22.7829829,1.18405755 19.9923883,2.17710911 17.2017937,3.44600834 C5.98360343,8.4664357 -1.60681388,15.6936443 0.290790445,19.5555115 C2.18839477,23.4725483 12.7926542,22.5898358 24.0108445,17.5694084 C26.0200726,16.6866959 27.3037462,15.6936443 29.0897267,14.7005928 L26.2991321,11.9421162 C33.7779256,7.91474038 37.4056986,3.50117787 36.2894608,1.23922708 Z M22.5597353,10.783556 C15.5832488,14.204067 9.27650505,15.7488139 8.55095046,14.204067 C7.82539586,12.7144896 12.904278,8.68711383 19.8807645,5.32177241 C26.857251,1.90126145 33.1639948,0.356514573 33.8895494,1.90126145 C34.6709159,3.3908388 29.5920337,7.36304507 22.5597353,10.783556 Z" id="Shape"></path>
        </g>
    </g>
</svg>