<?xml version="1.0" encoding="UTF-8"?>
<svg width="92px" height="21px" viewBox="0 0 92 21" version="1.1" xmlns="http://www.w3.org/2000/svg" xmlns:xlink="http://www.w3.org/1999/xlink">
    <!-- Generator: Sketch 50.2 (55047) - http://www.bohemiancoding.com/sketch -->
    <title>lightspeed-logo</title>
    <desc>Created with Sketch.</desc>
    <defs></defs>
    <g id="lightspeed-logo" stroke="none" stroke-width="1" fill="none" fill-rule="evenodd">
        <g id="lightspeed_edge_white" fill="#131516" fill-rule="nonzero">
            <path d="M47.2545875,11 L47.2536351,11.0023422 C45.7934645,11.0283818 44.8694971,11.850904 44.8694971,11.850904 L39.0679992,18.055229 C38.2957361,18.681145 37.6432036,18.6990559 37.6432036,18.6990559 L0,18.6757718 L39.7795807,20.9961937 C39.7795807,20.9961937 41.2985282,21.0879525 42.6464513,20.3704155 C45.2703229,19.0444601 48.5133928,13.4420781 51.0293707,13.179615 L92,11.0011022 L47.2545875,11 Z" id="Shape"></path>
            <g id="Group" transform="translate(4.000000, 0.000000)">
                <polygon id="Shape" points="2.33779049 0.2 2.8160581 0.199428571 0.650297535 8.129 5.51132923 8.13457143 5.38200176 8.60585714 0.0439225352 8.60128571"></polygon>
                <polygon id="Shape" points="9.49363908 0.206857143 9.97136444 0.207571429 7.67844542 8.60642857 7.19868662 8.60771429"></polygon>
                <path d="M17.0838327,7.02657143 L17.0634982,7.02842857 C15.9693662,8.26228571 14.9393556,8.82657143 13.4880141,8.823 C10.9734489,8.82171429 10.0920158,7.03328571 10.8086039,4.40885714 C11.499706,1.86785714 13.5170246,-0.00257142857 15.9777711,0.00185714286 C18.0471461,0.00385714286 19.0044947,1.32285714 18.7794595,2.87357143 L17.9481849,2.87471429 C18.0365722,1.45114286 17.0903398,0.801142857 15.7593785,0.800285714 C13.7347394,0.798714286 12.2415088,2.199 11.6386585,4.40842857 C11.0208961,6.66928571 11.6710581,8.02442857 13.6444542,8.026 C15.866338,8.02885714 16.9625035,6.59185714 17.604125,5.08657143 L14.8829613,5.08471429 L15.0995915,4.28428571 L18.5263627,4.28714286 L17.3460123,8.61614286 L16.7533292,8.61614286 L17.0838327,7.02657143 Z" id="Shape"></path>
                <polygon id="Shape" points="21.5278715 0.218857143 22.2999049 0.217428571 21.3283222 3.77342857 26.6871426 3.77885714 27.6595387 0.224571429 28.4264208 0.226857143 26.1305194 8.626 25.3630951 8.62514286 26.4679366 4.57857143 21.1103363 4.57342857 20.0037324 8.62085714 19.2356303 8.61828571"></polygon>
                <polygon id="Shape" points="32.4016813 1.03 29.4950669 1.02714286 29.7133239 0.226 36.2977729 0.232571429 36.0772113 1.03285714 33.1700546 1.02842857 31.096206 8.63071429 30.3289173 8.62985714"></polygon>
                <path d="M40.4973908,-2.96461532e-21 C41.6397835,0.00142857143 43.8603116,0.239714286 43.3895,2.67557143 L41.7086496,2.67385714 C41.832419,2.02971429 41.506118,1.31914286 40.2080986,1.31828571 C39.1714454,1.31942857 38.3836866,1.68257143 38.1693609,2.46871429 C37.6299542,4.44985714 43.672963,2.55957143 42.6920264,6.14671429 C42.1015123,8.31242857 39.9636778,8.873 38.3842289,8.871 C35.7159349,8.86842857 34.9700651,7.68214286 35.4312518,5.91842857 L37.1154912,5.91857143 C36.8546673,7.02557143 37.5193345,7.55514286 38.7970194,7.55385714 C39.7427095,7.55714286 40.7109032,7.24 40.961831,6.32357143 C41.5295704,4.23942857 35.571831,6.04671429 36.5133187,2.59857143 C37.0257482,0.726571429 38.6887042,-0.00157142857 40.4973908,-2.96461532e-21 Z" id="Shape"></path>
                <path d="M50.3392923,0.246571429 L44.7974613,0.241142857 L44.4346937,1.55785714 L49.5842042,1.56314286 C50.1865123,1.56542857 50.7608944,1.82328571 50.4759401,2.85871429 C50.2031866,3.85842857 49.6534771,4.13014286 48.7696039,4.13085714 L44.7088028,4.12628571 L43.4762606,8.64342857 L45.0337482,8.64414286 L45.9070475,5.445 L48.9390581,5.44685714 C50.6117746,5.44971429 51.6861144,4.14314286 52.0341056,2.861 C52.4051426,1.50857143 52.1548926,0.248 50.3392923,0.246571429 Z" id="Shape"></path>
                <polygon id="Shape" points="53.7473556 0.250714286 60.182956 0.256571429 59.8242553 1.57357143 54.9431602 1.56857143 54.3655246 3.68928571 59.0500528 3.69171429 58.688912 5.00771429 54.0057394 5.00571429 53.3715739 7.33385714 58.3330581 7.33857143 57.9739507 8.65671429 51.4511831 8.65"></polygon>
                <path d="M74.1732324,0.270571429 L70.175875,0.266285714 L68.8760933,5.01885714 L70.43575,5.02028571 L71.372493,1.58585714 L73.482537,1.58785714 C74.3548873,1.58685714 75.8337482,1.75614286 75.0901831,4.48542857 C74.4187377,6.94257143 73.1125845,7.35471429 71.9913398,7.35285714 L61.5827835,7.34242857 L62.219118,5.01228571 L66.9024261,5.01714286 L67.2639736,3.69985714 L62.5816144,3.69557143 L63.1589789,1.57614286 L68.0396673,1.58228571 L68.3997236,0.264571429 L61.9601919,0.258571429 L59.6668662,8.65757143 L72.254875,8.67142857 C74.7779806,8.67471429 76.1352412,6.36942857 76.628963,4.55685714 C77.2849542,2.15642857 77.0810669,0.273857143 74.1732324,0.270571429 Z" id="Shape"></path>
            </g>
            <g id="Group" transform="translate(1.000000, 11.000000)">
                <path d="M7.43966187,1.99575 L7.12226619,3.00475 L2.39030935,3.001125 L2.11651799,3.872625 L8.63351799,3.8785 L8.29766906,4.94825 L0.133410072,4.941 L1.06386331,1.99175 L7.43966187,1.99575 Z M9.53786331,0.118 L9.22128777,1.11875 L1.3372446,1.11125 L1.65395683,0.1105 L9.53786331,0.118 Z" id="Shape"></path>
                <path d="M19.3082374,0.352625 C19.3780863,0.49575 19.3798633,0.673375 19.3145252,0.8765 L18.2681583,4.20175 C18.175482,4.497875 18.0320935,4.69725 17.8414101,4.797125 C17.6512734,4.902375 17.4860144,4.954625 17.3512374,4.9565 L13.2353453,4.95275 L9.12041007,4.946625 L9.5628777,3.541625 L10.0253022,2.0655 L11.6057194,2.06825 L11.0161727,3.948125 L16.7741295,3.952875 L17.6633022,1.132375 L10.3246547,1.12575 L10.64,0.118375 L18.8030288,0.125375 C19.0773669,0.126 19.2453597,0.201875 19.3082374,0.352625 Z" id="Shape"></path>
                <path d="M29.2855612,0.1355 L28.9691223,1.142625 L21.7044245,1.13725 L20.8144317,3.956375 L26.5071871,3.961625 L26.8064029,3.022125 L22.8221439,3.01775 L23.119446,2.076125 L28.6725036,2.081875 L27.9645827,4.340375 C27.8306259,4.755375 27.5387914,4.964 27.0838849,4.96275 L19.5381511,4.956 C19.406518,4.956375 19.2731079,4.904125 19.1429784,4.79925 C19.0173597,4.6935 19.0010935,4.495125 19.0928129,4.204875 L20.1374029,0.878 C20.2041079,0.667875 20.3279496,0.49125 20.5101583,0.352125 C20.6937338,0.2025 20.9213237,0.126875 21.1977122,0.12675 L29.2855612,0.1355 Z" id="Shape"></path>
                <path d="M35.8952374,2.022 L35.5781151,3.0275 L30.844518,3.0245 L30.5707266,3.89625 L37.0885468,3.90325 L36.7518777,4.971625 L28.5888489,4.96475 L29.5169784,2.014875 L35.8952374,2.022 Z M37.9919353,0.141375 L37.6779568,1.14175 L29.7935036,1.1355 L30.107482,0.135 L37.9919353,0.141375 Z" id="Shape"></path>
            </g>
        </g>
    </g>
</svg>