<?xml version="1.0" encoding="UTF-8"?>
<svg width="267px" height="17px" viewBox="0 0 267 17" version="1.1" xmlns="http://www.w3.org/2000/svg" xmlns:xlink="http://www.w3.org/1999/xlink">
    <!-- Generator: Sketch 50.2 (55047) - http://www.bohemiancoding.com/sketch -->
    <title>speed-plate-logo</title>
    <desc>Created with Sketch.</desc>
    <defs></defs>
    <g id="speed-plate-logo" stroke="none" stroke-width="1" fill="none" fill-rule="evenodd">
        <g id="speedplate" fill="#000000" fill-rule="nonzero">
            <path d="M0,17 L1.14544518,13.9813084 L16.0362325,13.9813084 C17.6725827,13.9813084 18.3271228,13.3457944 18.8180279,12.2336449 L18.9816629,11.5981308 C19.472568,10.3271028 19.1452979,9.85046729 17.5089477,9.85046729 L8.01811623,9.85046729 C4.5817807,9.85046729 2.94543045,8.42056075 3.9272406,5.56074766 L4.41814568,4.44859813 C5.39995583,1.58878505 8.01811623,0 11.6180868,0 L22.4179984,0 C25.6906989,0 26.345239,1.27102804 25.854334,2.85981308 L11.4544518,2.85981308 C9.8181015,2.85981308 9.1635614,3.3364486 8.67265633,4.60747664 L8.5090213,5.08411215 C8.18175125,6.19626168 8.5090213,6.8317757 10.1453716,6.8317757 L19.636203,6.8317757 C23.3998086,6.8317757 24.5452538,8.42056075 23.5634436,11.4392523 L23.0725385,12.7102804 C22.0907284,15.411215 19.308933,17 16.0362325,17 L0,17 Z" id="Shape"></path>
            <path d="M32.7320434,10.5462963 L30.2691007,17 L26,17 L31.2542778,2.51851852 C31.9110625,0.787037037 33.5530243,0 35.5233785,0 L48.4948768,0 C52.4355851,0 53.7491546,1.10185185 52.5997813,4.09259259 L51.7788004,6.2962963 C50.7936233,9.12962963 48.4948768,10.3888889 44.5541684,10.3888889 L32.7320434,10.3888889 L32.7320434,10.5462963 Z M46.852915,2.83333333 L35.6875747,2.83333333 L33.8814167,7.87037037 L45.046757,7.87037037 C46.3603264,7.87037037 47.1813073,7.39814815 47.6738959,6.2962963 L48.3306806,4.40740741 C48.659073,3.30555556 48.3306806,2.83333333 46.852915,2.83333333 Z" id="Shape"></path>
            <path d="M53.3313156,12.5925926 L56.2526072,4.56481481 C57.226371,1.88888889 59.4984867,0 63.5558361,0 L78,0 L77.0262361,2.83333333 L63.2312481,2.83333333 C61.9328963,2.83333333 61.1214264,3.30555556 60.6345445,4.40740741 L59.8230746,6.76851852 L74.5918265,6.76851852 L73.6180626,9.60185185 L58.6870168,9.60185185 L57.550959,12.5925926 C57.226371,13.6944444 57.550959,14.1666667 58.8493108,14.1666667 L73.2934747,14.1666667 L72.3197108,17 L57.226371,17 C53.4936096,17 52.3575517,15.2685185 53.3313156,12.5925926 Z" id="Shape"></path>
            <path d="M78.2501656,12.5925926 L81.181067,4.56481481 C82.1580342,1.88888889 84.4376242,0 88.5083206,0 L103,0 L102.023033,2.83333333 L88.1826649,2.83333333 C86.8800421,2.83333333 86.0659028,3.30555556 85.5774192,4.40740741 L84.7632799,6.76851852 L99.580615,6.76851852 L98.6036478,9.60185185 L83.7863128,9.60185185 L82.6465178,12.5925926 C82.3208621,13.6944444 82.6465178,14.1666667 83.9491406,14.1666667 L98.2779921,14.1666667 L97.301025,17 L82.1580342,17 C78.5758213,17 77.4360263,15.2685185 78.2501656,12.5925926 Z" id="Shape"></path>
            <path d="M102,17 L108.077308,0 L124.869869,0 C128.228382,0 129.667744,1.57407407 128.708169,4.56481481 L125.829444,12.5925926 C124.869869,15.4259259 122.311003,17 118.952491,17 L102,17 Z M122.470932,2.83333333 L111.43582,2.83333333 L107.437591,14.1666667 L118.472703,14.1666667 C119.912066,14.1666667 120.871641,13.6944444 121.191499,12.4351852 L124.070224,4.40740741 C124.550011,3.46296296 124.070224,2.83333333 122.470932,2.83333333 Z" id="Shape"></path>
            <path d="M146.89624,10.5462963 L144.433297,17 L140,17 L145.254278,2.51851852 C145.911063,0.787037037 147.553024,0 149.523378,0 L162.494877,0 C166.435585,0 167.749155,1.10185185 166.599781,4.09259259 L165.7788,6.2962963 C164.793623,9.12962963 162.494877,10.3888889 158.554168,10.3888889 L146.89624,10.3888889 L146.89624,10.5462963 Z M161.017111,2.83333333 L149.851771,2.83333333 L148.045613,7.87037037 L159.210953,7.87037037 C160.524523,7.87037037 161.345504,7.39814815 161.838092,6.2962963 L162.494877,4.40740741 C162.823269,3.30555556 162.330681,2.83333333 161.017111,2.83333333 Z" id="Shape"></path>
            <path d="M167.254924,12.5925926 L171.900824,0 L176.380799,0 L171.734899,12.5925926 C171.403049,13.6944444 171.734899,14.1666667 173.062299,14.1666667 L187,14.1666667 L186.00445,17 L171.237124,17 C167.586774,17 166.425299,15.2685185 167.254924,12.5925926 Z" id="Shape"></path>
            <path d="M206.654706,16.8425926 L209.062166,10.3888889 L196.543374,10.3888889 C196.061882,10.3888889 195.58039,10.7037037 195.419893,11.1759259 L193.333428,17 L189,17 L193.493925,4.56481481 C194.617406,1.41666667 197.185364,0 200.716305,0 L211.951118,0 C215.161064,0 216.766037,1.41666667 215.642556,4.56481481 L211.148631,17 L206.654706,17 L206.654706,16.8425926 Z M209.864652,2.67592593 L200.39531,2.67592593 C198.950834,2.67592593 198.148348,3.14814815 197.827353,4.25 L196.703872,7.55555556 L209.062166,7.55555556 C209.864652,7.55555556 210.185647,7.39814815 210.346144,6.76851852 L211.309128,4.25 C211.630123,3.30555556 211.148631,2.67592593 209.864652,2.67592593 Z" id="Shape"></path>
            <polygon id="Shape" points="228.697987 17 224.187919 17 229.342282 2.83333333 220 2.83333333 220.966443 0 244 0 243.033557 2.83333333 234.013423 2.83333333"></polygon>
            <path d="M242.250166,12.5925926 L245.181067,4.56481481 C246.158034,1.88888889 248.437624,0 252.508321,0 L267,0 L266.023033,2.83333333 L252.182665,2.83333333 C250.880042,2.83333333 250.065903,3.30555556 249.577419,4.40740741 L248.76328,6.76851852 L263.580615,6.76851852 L262.603648,9.60185185 L247.786313,9.60185185 L246.646518,12.5925926 C246.320862,13.6944444 246.646518,14.1666667 247.949141,14.1666667 L262.277992,14.1666667 L261.301025,17 L246.158034,17 C242.575821,17 241.436026,15.2685185 242.250166,12.5925926 Z" id="Shape"></path>
        </g>
    </g>
</svg>