<?xml version="1.0" encoding="UTF-8"?>
<svg width="20px" height="25px" viewBox="0 0 20 25" version="1.1" xmlns="http://www.w3.org/2000/svg" xmlns:xlink="http://www.w3.org/1999/xlink">
    <!-- Generator: Sketch 50 (54983) - http://www.bohemiancoding.com/sketch -->
    <title>store-locator-icon</title>
    <desc>Created with Sketch.</desc>
    <defs></defs>
    <g id="store-locator-icon" stroke="none" stroke-width="1" fill="none" fill-rule="evenodd">
        <path d="M9.9997894,13.5204436 C7.5029133,13.5204436 5.47188487,11.6407008 5.47188487,9.32981006 C5.47188487,7.01891929 7.5029133,5.13878666 9.9997894,5.13878666 C12.4966655,5.13878666 14.5281151,7.01891929 14.5281151,9.32981006 C14.5281151,11.6407008 12.4966655,13.5204436 9.9997894,13.5204436 Z M9.9997894,1 C5.03720604,1 1,4.73687567 1,9.32981006 C1,15.0298514 9.05419445,23.3978644 9.3966304,23.7510471 C9.71926992,24.0831792 10.2815725,24.0827894 10.6029484,23.7510471 C10.9458055,23.3978644 19,15.0298514 19,9.32981006 C19,4.73687567 14.9623728,1 9.9997894,1 Z" id="Page-1" stroke="#221E1F" stroke-width="0.715"></path>
    </g>
</svg>