<?xml version="1.0" encoding="UTF-8"?>
<svg width="279px" height="43px" viewBox="0 0 279 43" version="1.1" xmlns="http://www.w3.org/2000/svg" xmlns:xlink="http://www.w3.org/1999/xlink">
    <!-- Generator: Sketch 50.2 (55047) - http://www.bohemiancoding.com/sketch -->
    <title>vapor-logo</title>
    <desc>Created with Sketch.</desc>
    <defs></defs>
    <g id="vapor-logo" stroke="none" stroke-width="1" fill="none" fill-rule="evenodd">
        <g id="Vapor-Red-Logo" fill="#000000">
            <path d="M110.204064,35 C110.204064,35 110.206051,17.138705 110.206051,15.0486722 C112.379196,15.0486722 128.063163,15.0486722 128.063163,15.0486722 L132.855124,15.0958755 L138.446776,15.3263134 C141.105786,15.6030963 141.787544,16.264586 141.787544,18.548796 C141.787544,19.6346862 141.610203,19.9844196 141.309629,20.6405453 C140.966652,21.3370084 139.987633,21.6536995 138.839223,21.786727 C138.662102,21.786727 125.71886,21.786727 125.71886,21.786727 L138.846952,27.8476291 C138.846952,27.8476291 139.035557,27.8658667 138.99735,27.8549242 C140.551458,27.8834607 144.025398,27.7937744 146.047924,25.7975045 C146.74492,25.110053 147.541299,24.2726237 148.129638,23.0200201 C148.710689,21.8017462 149,20.3472412 149,18.7097163 C149,14.8195217 147.329947,10.0240968 139.389576,9.27184803 C137.344302,9.09054449 133.660777,9 128.118595,9 L106.604461,9 C103.346731,9 103,10.8381389 103,11.6285794 L103,35 L110.204064,35" id="Fill-1"></path>
            <path d="M163.964672,9.44527969 C159.575955,9.9041557 156.669493,11.4065498 155.32355,13.9101858 C154.434806,15.5982547 154,18.1696599 154,21.7890445 C154,25.0602356 154.193054,27.2613534 154.598076,28.5088164 C155.239198,30.7322406 156.542312,32.349991 158.465895,33.2953606 C160.070765,34.0988185 162.545464,34.5942346 165.99913,34.7922311 C166.031089,34.7922311 172.127942,34.9551746 172.127942,34.9551746 C172.133377,34.9551746 179.899234,35 179.899234,35 C185.638241,35 189.639328,34.8810321 191.78401,34.6492573 C194.736779,34.3110486 196.842546,33.7202458 198.235448,32.8462569 C199.701397,31.9183076 200.736453,30.4445933 201.306484,28.463991 C201.767596,26.9662707 202,24.8613894 202,22.060971 C202,19.9851944 201.855644,18.1936659 201.581934,16.7295115 C201.09082,14.1428105 200.196424,12.4003562 198.855916,11.394653 C197.46671,10.3768405 195.00875,9.70743386 191.324637,9.34989296 C188.727974,9.11811809 184.704495,9 179.355508,9 C172.000326,9 166.827654,9.1521089 163.964672,9.44527969 Z M169.962607,14.6858137 C169.971955,14.6858137 178.962009,14.5621721 178.962009,14.5621721 C184.419479,14.5621721 188.251644,14.6749792 190.338497,14.8984688 C192.835806,15.1686958 193.713245,15.6020787 194.020653,15.8402268 C194.196967,15.9740657 194.633513,16.4501495 194.91505,17.9635906 C195.127018,19.0334515 195.245068,20.0391548 195.245068,22.060971 C195.245068,24.5544098 195.059188,25.6463648 194.746128,26.6905202 C194.511767,27.4124001 194.159356,27.9354338 193.715202,28.2203193 C193.356922,28.4523066 192.539703,28.7718203 190.771564,28.9742781 C188.922985,29.1969179 185.246481,29.309725 179.852275,29.309725 L172.264906,29.2162502 L166.527637,29.0658409 C164.187728,28.9264785 163.10419,28.6333077 162.603511,28.4191656 C161.868689,28.0988022 161.409316,27.5500629 161.144954,26.6905202 C160.910593,25.9503701 160.74928,24.8696746 160.74928,21.9381792 C160.74928,19.0674424 161.000598,17.3625905 161.56302,16.3989509 C162.093701,15.4682398 163.685526,15.1238704 164.906028,14.9900315 C164.868417,14.9947053 169.962607,14.6858137 169.962607,14.6858137 Z" id="Fill-2"></path>
            <path d="M208.00525,34.4159049 L208.00525,11.6225104 C207.948819,10.7954964 208.297463,9 211.524935,9 L232.82546,9 C238.317586,9 241.96588,9.08844397 243.993439,9.26554149 C251.86308,10.000339 253.510061,14.6845161 253.510061,18.4844631 C253.510061,20.0839996 253.225722,21.5047618 252.650481,22.6947734 C252.066492,23.9183182 251.27909,24.7363201 250.587927,25.4078236 C250.489502,25.5088425 250.316711,25.5650108 250.205162,25.6559697 C251.727472,26.7839447 278.945319,42.9622751 279,43 L232.952319,21.7044943 L244.083115,21.7044943 C245.150481,21.556948 245.614174,21.0805661 245.942257,20.413883 C246.241908,19.7822003 246.368767,19.3879749 246.368767,18.327276 C246.368767,16.0960568 245.695101,15.4499128 243.059493,15.1795509 L237.52581,14.9544589 L232.770779,14.9083506 C232.770779,14.9083506 217.24147,14.9083506 215.095582,14.9083506 L215.095582,34.3968328 L208.00525,34.4159049" id="Fill-3"></path>
            <path d="M49.7856044,8.07457687 L35.6667371,25.4193649 C34.6801992,26.6660948 33.6914738,27.0918905 32.8003085,27.1087094 C31.9052057,27.0918905 30.8469196,26.8715412 29.6471057,25.6388626 L0,0 L26.8344882,32.1162798 C27.8551503,33.2710378 28.3766373,33.9495432 29.5451708,33.9640203 L32.7917774,34 L32.8031521,34 L36.0477901,33.9640203 C37.2154486,33.9495432 37.741748,33.2710378 38.7604413,32.1162798 L59,8.07457687 L49.7856044,8.07457687" id="Fill-4"></path>
            <path d="M78.8592055,10.8876443 C77.8482583,9.72828354 77.3225396,9.04633173 76.1622578,9.03501568 L73.0826129,9.00277563 L73.0826129,9 L72.9981496,9.00277563 L72.9221762,9 L72.9221762,9.00277563 L69.8423137,9.03501568 C68.6765897,9.04633173 68.1537009,9.72828354 67.1370938,10.8876443 L47,35 L56.1705802,35 L70.220657,17.604464 C71.1743521,16.3883095 72.1326186,15.9536026 72.9981496,15.9166653 C73.8702114,15.9536026 74.8256479,16.3883095 75.779343,17.604464 L89.8309436,35 L99,35 L78.8592055,10.8876443" id="Fill-5"></path>
        </g>
    </g>
</svg>