<?xml version="1.0" encoding="UTF-8"?>
<svg width="40px" height="38px" viewBox="0 0 40 38" version="1.1" xmlns="http://www.w3.org/2000/svg" xmlns:xlink="http://www.w3.org/1999/xlink">
    <!-- Generator: Sketch 50 (54983) - http://www.bohemiancoding.com/sketch -->
    <title>skate-icon</title>
    <desc>Created with Sketch.</desc>
    <defs></defs>
    <g id="skate-icon" stroke="none" stroke-width="1" fill="none" fill-rule="evenodd">
        <g id="Page-1" transform="translate(1.000000, 1.000000)">
            <path d="M18.9756864,35.676893 C29.4111949,35.676893 37.8710254,33.2225596 37.8710254,30.1950509 C37.8710254,28.7835333 36.0318898,27.4966474 33.0112119,26.5249105" id="Stroke-1" stroke="#231F20" stroke-width="0.4"></path>
            <path d="M16.6791661,35.6368096 C7.32665763,35.3080289 0.0805728814,32.9971518 0.0805728814,30.1952132 C0.0805728814,28.7703886 1.9541661,27.4727921 5.02540339,26.4978096" id="Stroke-3" stroke="#231F20" stroke-width="0.4"></path>
            <path d="M3.98066102,28.9024526 C8.58445763,32.0085053 30.4119153,31.4080667 33.8573559,28.9426982" id="Stroke-5" stroke="#231F20" stroke-width="0.4" stroke-linecap="round" stroke-linejoin="round"></path>
            <path d="M18.7319712,12.8181307 C18.806361,13.0537623 18.8301915,13.1774202 18.8575644,13.2942623 C19.0256661,14.0112184 19.3486661,14.4675518 19.6716661,14.8979202 C19.9631068,15.2873939 20.2561576,15.6544728 20.6435644,16.0066219 C21.0992424,16.4201132 21.6856661,16.8118588 22.264039,17.0715079 C22.9045644,17.3580956 23.5338186,17.4827272 24.2828695,17.6836307 C24.7742932,17.8150781 25.3162763,17.9796307 25.8295983,18.1230868 C26.3168356,18.2597272 26.777022,18.3768939 27.2082254,18.4739377" id="Stroke-7" stroke="#231F20" stroke-width="0.4" stroke-linecap="round" stroke-linejoin="round"></path>
            <path d="M6.56620678,14.8746816 C6.53690169,15.0415061 5.84420678,18.1189974 5.80652881,18.2504447 C5.78334237,18.3299623 5.75693559,18.4010412 5.74727458,18.4591377 C5.7408339,18.4935412 5.7408339,18.5234009 5.74244407,18.5604009 C5.7798,19.4730675 6.02357966,20.5814447 6.67569831,21.2432254 C7.19900339,21.7742079 7.87366441,22.1691991 8.53351186,22.5009009 C9.23908814,22.8543482 10.1279017,23.2594009 10.8833932,23.5758482" id="Stroke-9" stroke="#231F20" stroke-width="0.4" stroke-linecap="round" stroke-linejoin="round"></path>
            <path d="M5.74241186,18.4740351 L5.49734407,19.0423421 C5.47222542,19.1014123 5.45837797,19.1647018 5.45708983,19.2289649 L5.41522542,21.3798333 C5.40620847,21.4590263 5.40459831,21.5395175 5.41522542,21.6187105 C5.53598814,22.5213158 6.85986949,22.9766754 7.59893729,23.1645965 C8.82653051,23.4768246 9.75624237,23.5193421 11.0218356,23.5933421 C12.3119034,23.6689649 13.600361,23.7536754 14.8859203,23.8922632 C16.9205305,24.021114 18.8749542,24.5559912 20.7991068,25.2070614 C21.0206661,25.2817105 21.2113102,25.3456491 21.4457508,25.4125088 C21.8985305,25.540386 22.5165136,25.6783246 22.9657508,25.7322018 C24.6609373,25.9379737 26.3789881,25.8315175 28.0767508,25.7140263 C29.1365644,25.6406754 30.2144119,25.604 31.2677847,25.4589211 C31.3099712,25.4530789 31.3544119,25.4469123 31.3379881,25.316114 C31.2107847,24.9207982 29.1713441,21.5684035 29.0138695,21.5515263 C28.9494627,21.544386 28.8596153,21.5268596 28.7778186,21.5190702 C25.1265983,21.1730877 21.5716661,20.617114 18.1845136,19.1322456 C17.4786153,18.8229386 16.5592085,18.4688421 15.9009712,18.0725526 C15.2189034,17.662307 14.9960559,17.5451404 14.3535983,17.0203246 C13.9256153,16.6704474 13.6531746,16.0998684 13.6074458,15.5919298 L13.002022,10.0497193" id="Stroke-11" stroke="#231F20" stroke-width="0.4" stroke-linecap="round" stroke-linejoin="round"></path>
            <path d="M7.50812373,9.33766404 C7.42986949,8.23026053 7.58637797,7.76613772 7.90164915,7.07514649 C8.62107288,5.49810263 9.54015763,3.45401491 8.75407288,1.72507632 C8.55602203,1.29178684 8.20790339,0.837725439 7.91710678,0.646558772 C7.76349661,0.545944737 7.62598814,0.517707895 7.27303898,0.478435965 C7.40829322,0.493365789 7.30975085,4.04926053 7.29751356,4.38518158 C7.25919153,5.40949737 7.19220847,6.43446228 7.0537339,7.4509886 C6.92331017,8.40812018 6.58614068,9.32597982 6.48824237,10.2870061 C6.56617458,10.4450675 6.72751356,11.0075325 6.96903898,11.4216728" id="Stroke-13" stroke="#231F20" stroke-width="0.4" stroke-linecap="round" stroke-linejoin="round"></path>
            <path d="M8.96056102,10.8802719 L13.0020864,10.0497193 L15.6463068,7.7557193 C14.1707475,7.5707193 12.6246627,7.65023684 10.9822898,7.52852632 C10.4911881,7.49217544 9.99235763,7.43797368 9.53764576,7.45874561 C9.25071356,7.47237719 8.98149322,7.51586842 8.75349322,7.59733333 C8.44015424,7.70930702 8.20506949,7.89333333 8.01442542,8.16985965 C7.91491695,8.31331579 7.82828983,8.48273684 7.75712034,8.63300877 C7.65664576,8.84527193 7.58676441,9.02118421 7.50818814,9.33763158 C7.25828983,10.2236842 7.01740847,11.1136316 6.84608644,12.0191579 C6.67895085,12.9013158 6.62227288,13.7915877 6.54112034,14.6841316 C6.53500169,14.749693 6.52856102,14.8142807 6.56623898,14.8746491 L8.96056102,10.8802719" id="Stroke-15" stroke="#231F20" stroke-width="0.4" stroke-linecap="round" stroke-linejoin="round"></path>
            <path d="M9.11545932,7.50392456 C9.28227288,7.20597719 9.34925593,7.09400351 9.41012034,6.98430175 C9.94984915,6.01808246 10.053222,5.22290702 10.109578,4.63512632 C10.1556288,4.1593193 10.1717305,3.81885439 10.1243915,3.42873158 C10.0557983,2.85977544 9.85291695,2.1856614 9.43427288,1.60177544 C8.9718322,0.957196491 8.24467966,0.423617544 7.27310339,0.478468421" id="Stroke-17" stroke="#231F20" stroke-width="0.4" stroke-linecap="round" stroke-linejoin="round"></path>
            <path d="M14.7469627,8.53593246 C14.7601661,8.76734474 14.7637085,9.16752895 14.7656407,9.26457281 C14.7804542,9.88545877 14.758878,10.6251342 14.8152339,11.3407921 C14.939539,12.90745 15.4425559,14.3579149 16.231539,15.5123798 C17.2076237,16.94045 18.6223186,17.9151079 20.1271831,18.7128798 C20.7464542,19.0406868 21.380861,19.3389588 22.1305559,19.5969851 C23.0306407,19.9062921 24.097539,20.1588009 25.1190305,20.3421781 C25.8204203,20.468757 26.5002339,20.5632044 27.1893864,20.6690114 C27.6882169,20.7465816 28.1912339,20.8293447 28.610522,20.8001342" id="Stroke-19" stroke="#231F20" stroke-width="0.4" stroke-linecap="round" stroke-linejoin="round"></path>
            <path d="M28.7779153,21.5191675 C28.7389492,21.3218342 28.7125424,21.2254395 28.6845254,21.1134658 C28.5991864,20.7739746 28.5025763,20.2952465 28.4165932,19.9408254 C28.3747288,19.7691325 28.3347966,19.6263254 28.2848814,19.470536 C28.2323898,19.3066325 28.167339,19.1277991 28.025,18.9849921 C27.7454746,18.706843 27.1683898,18.5705272 26.6437966,18.47965 C26.0844237,18.3832553 25.5849492,18.3384658 25.1196102,18.2427202 C24.623678,18.141457 24.1657458,17.9830711 23.6920339,17.8298781 C22.2660678,17.3667289 20.6955085,16.94415 19.6736949,16.0616675" id="Stroke-21" stroke="#231F20" stroke-width="0.4" stroke-linecap="round" stroke-linejoin="round"></path>
            <path d="M15.5647678,7.82624649 C15.728039,7.81066754 15.8868017,7.82949211 15.9824458,7.8379307 C16.3054458,7.86876404 16.6052593,8.06772018 16.7798017,8.33710614 C17.0831576,8.80415 17.0100559,9.48313246 16.9952424,10.0949307 C16.9778525,10.8333079 17.0441915,11.4736675 17.1620559,12.1854307 C17.2403102,12.5810711 17.4609034,13.1730711 17.7288356,13.7180096 C17.9304288,14.1272816 18.1590729,14.5099395 18.3857847,14.7884132 C18.531022,14.9656237 18.6746492,15.1006412 18.8421068,15.2648693 C19.0939373,15.5118605 19.3985814,15.8240886 19.6735983,16.0616675" id="Stroke-23" stroke="#231F20" stroke-width="0.4" stroke-linecap="round" stroke-linejoin="round"></path>
            <path d="M28.2294593,19.3134807 C28.4091542,19.3199719 32.1209169,19.7045772 32.9562729,19.9765596 C33.5491373,20.1748667 33.698239,20.7795246 33.8115949,21.4286474 C33.9935441,22.4753579 34.0792051,23.638586 33.7938831,24.6642 C33.6711881,24.878086 33.6232051,24.9047 33.5707136,24.9300158 C33.0371034,25.1860947 32.1827475,25.3055333 31.3415949,25.4447702" id="Stroke-25" stroke="#231F20" stroke-width="0.4" stroke-linecap="round" stroke-linejoin="round"></path>
            <path d="M28.6810475,21.1009377 C28.9467254,21.0941219 31.4106068,21.2671132 32.5087424,21.3453325 C32.8288441,21.3680518 33.1077254,21.5738237 33.2265559,21.8743675 L33.9440475,23.8610079" id="Stroke-27" stroke="#231F20" stroke-width="0.4" stroke-linecap="round" stroke-linejoin="round"></path>
            <path d="M3.98066102,28.9024526 C4.05891525,28.6252772 6.27837288,23.5757509 6.27837288,23.5757509" id="Stroke-29" stroke="#231F20" stroke-width="0.4" stroke-linecap="round" stroke-linejoin="round"></path>
            <path d="M33.0948763,25.1332561 C33.0942322,25.2374404 33.0971305,25.2747649 33.0894017,25.3068965 C33.0588085,25.4328263 32.8617237,25.4779404 32.7844356,25.5762825 C32.7287237,25.6473614 32.7335542,25.7457035 32.7477237,25.8420982 C32.8227576,26.3714579 33.1451136,26.8537561 33.4668254,27.3529316 C33.7843508,27.8446421 34.1009102,28.3529053 33.8793508,28.9303" id="Stroke-31" stroke="#231F20" stroke-width="0.4" stroke-linecap="round" stroke-linejoin="round"></path>
            <path d="M12.9965153,7.6100886 C12.9887864,7.28098333 13.0461085,6.57149211 13.1423966,5.91782544 C13.2335322,5.29823772 13.3597695,4.7299307 13.5140237,4.1892114 C13.7661763,3.30218509 14.0904644,2.49013246 14.5110407,1.73130789 C14.751922,1.29899211 15.0230746,0.883228947 15.4668373,0.619035965 C16.0194475,0.290579825 16.8399898,0.197755263 17.3790746,0.134465789 C17.7020746,0.0974657895 17.9239559,0.070527193 18.3271424,0.0851324561 C18.6488542,0.0974657895 19.0848881,0.136088596 19.2600746,0.315895614 C19.5273627,0.589500877 19.1895492,1.1905886 19.0327186,1.42751842 C17.5346169,1.38175526 16.2683797,1.81082544 15.625278,2.76860614 C15.4004983,3.10225526 15.2520407,3.50016754 15.1293458,3.96169386 C14.8627017,4.95939561 14.7155322,6.25309737 14.6388881,7.6655886 L12.9965153,7.6100886 Z" id="Stroke-33" stroke="#231F20" stroke-width="0.4" stroke-linecap="round" stroke-linejoin="round"></path>
            <path d="M18.5690542,12.1388886 C18.5564949,10.7549588 18.5603593,10.5258184 18.5597153,10.3917746 C18.5561729,9.7397307 18.5597153,9.62516053 18.5616475,9.31780088 C18.5645458,8.88548509 18.5597153,8.45219561 18.5249356,8.02085351 C18.4946644,7.6391693 18.4750203,7.13512544 18.2476644,6.81056404 C18.3445966,6.95012544 17.9130712,7.35615175 17.8367492,7.44216053 C17.569461,7.74270439 17.4319525,7.98839737 17.3192407,8.38695877 C17.103478,9.14578333 17.1836644,11.0155816 17.8911729,12.4683184" id="Stroke-35" stroke="#231F20" stroke-width="0.4" stroke-linecap="round" stroke-linejoin="round"></path>
            <path d="M19.032622,1.42758333 L18.2475034,6.80653947" id="Stroke-37" stroke="#231F20" stroke-width="0.4" stroke-linecap="round" stroke-linejoin="round"></path>
            <path d="M14.2300983,24.5926667 L13.1809119,26.2076842 C12.9699797,26.4845351 13.0826915,26.8522632 13.4298441,27.0294737 C14.1196407,27.3812982 15.2496576,27.8843684 17.8784203,28.2193158 C20.4511492,28.4432632 22.1386068,28.2579386 22.8644712,28.0567105 C23.2509119,27.9492807 23.4341492,27.5935614 23.271522,27.2810088 L22.8242169,26.4205965" id="Stroke-43" stroke="#221E1F" stroke-width="0.4"></path>
            <path d="M33.8763559,28.9105342 L33.8763559,30.3895605 C33.8763559,31.6777447 30.2837458,31.9399904 29.5311525,32.0311921 C26.0171186,32.4566921 22.4512373,32.5005079 18.9165932,32.5005079 C15.1645763,32.5005079 11.3574915,32.4738939 7.63477966,31.9429114 C6.47288136,31.7773851 4.74452542,31.6673588 4.06857627,30.5677447 C4.00642373,30.4664816 3.97261017,30.349964 3.97261017,30.2305254 L3.97261017,28.9105342" id="Stroke-47" stroke="#231F20" stroke-width="0.4" stroke-linecap="round" stroke-linejoin="round"></path>
            <path d="M20.6846237,26.0595544 C21.1374034,26.1859544 21.7553864,26.3216344 22.2049458,26.3750744" id="Stroke-49" stroke="#231F20" stroke-width="0.4" stroke-linecap="round" stroke-linejoin="round"></path>
            <path d="M5.74163898,22.2553053 C5.82118136,22.8492526 6.02889322,23.4649456 6.60597797,23.7343316 C7.32218136,24.0683053 8.2773339,24.1202351 9.05182542,24.2156561 C10.8761475,24.4402526 12.7175373,24.4532351 14.5463678,24.6226561 C15.5904017,24.7197 16.6318593,24.8677 17.6481983,25.1309193 C18.6738763,25.396086 19.6757237,25.7375246 20.6846559,26.0594895 L22.1794434,26.4108887" id="Stroke-51" stroke="#231F20" stroke-width="0.4" stroke-linecap="round" stroke-linejoin="round"></path>
            <path d="M32.6511136,25.6463877 C32.3017068,25.8138614 32.0714525,25.8281421 31.6937068,25.9018175 C31.2290119,25.9923702 30.7581983,26.0764316 30.2880288,26.1345281 C29.8159271,26.1929491 29.3418932,26.2315719 28.8672153,26.2633789 C28.3925373,26.2955105 27.9175373,26.3208263 27.4428593,26.3523088 C27.4003508,26.3552298 27.3578424,26.3581509 27.3153339,26.3610719 C25.6178932,26.4785632 23.8995203,26.5850193 22.204978,26.3795719" id="Stroke-53" stroke="#231F20" stroke-width="0.4" stroke-linecap="round" stroke-linejoin="round"></path>
            <path d="M23.073761,30.1046605 C24.6278966,30.0089149 25.9456593,29.8589675 27.0228627,29.6863009 C27.0866254,29.6759149 27.1030492,29.5908798 27.0479814,29.5568009 L25.6706424,28.7090465 C25.6419814,28.6911956 25.6081678,28.6847044 25.5749983,28.6905465 C25.0806763,28.7778535 24.5061678,28.8586693 23.8517949,28.9258535 C23.8128288,28.9297482 23.776761,28.9501956 23.7532525,28.9820026 L23.0128966,29.9923623 C22.9774729,30.0403974 23.0145068,30.1082307 23.073761,30.1046605 Z" id="Stroke-55" stroke="#221E1F" stroke-width="0.4"></path>
            <path d="M18.6089864,30.2127719 C19.6787831,30.2225088 20.6976983,30.2082281 21.6264441,30.1747982 C21.6676644,30.1735 21.7056644,30.1537018 21.7311051,30.1212456 L22.4769356,29.1634649 C22.5139695,29.1157544 22.4782237,29.0462982 22.4180034,29.0498684 C21.5488339,29.0969298 20.4613254,29.1202982 19.4098847,29.1102368 C19.3673763,29.1099123 19.3268,29.1290614 19.3000712,29.1628158 L18.5548847,30.0982018 C18.5184949,30.1439649 18.5506983,30.2124474 18.6089864,30.2127719 Z" id="Stroke-57" stroke="#221E1F" stroke-width="0.4"></path>
            <path d="M17.4576508,30.1366947 L18.2324644,29.1711246 C18.2682102,29.1269842 18.2395492,29.0610982 18.1831932,29.0568789 C17.1059898,28.9770368 16.0896508,28.8718789 15.2926169,28.7517912 C15.2468881,28.7449754 15.2011593,28.7612035 15.169922,28.795607 L14.2588881,29.7920105 C14.219922,29.8351772 14.2463288,29.9046333 14.3039729,29.9098263 L17.3365661,30.1883 C17.382939,30.1925193 17.4280237,30.1733702 17.4576508,30.1366947 Z" id="Stroke-59" stroke="#221E1F" stroke-width="0.4"></path>
            <path d="M9.33070678,29.0755088 C10.2443169,29.3027018 11.6245542,29.5224298 12.9358763,29.7142456 C13.0231475,29.7272281 13.1110627,29.6973684 13.1735373,29.6344035 L14.1599271,28.6367018 C14.1992153,28.5971053 14.1782831,28.5295965 14.1238593,28.5182368 C12.733961,28.2274298 11.7961983,27.8496404 11.1292661,27.5698684 C11.0819271,27.5500702 11.0281475,27.5578596 10.9882153,27.5903158 L9.30397797,28.9525 C9.25889322,28.9888509 9.27467288,29.0615526 9.33070678,29.0755088 Z" id="Stroke-61" stroke="#221E1F" stroke-width="0.4"></path>
            <path d="M16.6610678,13.7499789 L16.4601186,13.258593 C16.4298475,13.1852421 16.4688136,13.0976105 16.548678,13.0586632 L18.5691186,12.064207 C18.6570339,12.0213649 18.7600847,12.0534965 18.7932542,12.1343123 L19.0170678,12.912286 C19.0502373,12.9931018 19,13.0891719 18.9072542,13.1213035 L16.8639492,13.8288474 C16.7798983,13.8580579 16.691339,13.8236544 16.6610678,13.7499789" id="Fill-73" fill="#FEFEFE"></path>
            <path d="M16.6610678,13.7499789 L16.4601186,13.258593 C16.4298475,13.1852421 16.4688136,13.0976105 16.548678,13.0586632 L18.5691186,12.064207 C18.6570339,12.0213649 18.7600847,12.0534965 18.7932542,12.1343123 L19.0170678,12.912286 C19.0502373,12.9931018 19,13.0891719 18.9072542,13.1213035 L16.8639492,13.8288474 C16.7798983,13.8580579 16.691339,13.8236544 16.6610678,13.7499789 Z" id="Stroke-75" stroke="#231F20" stroke-width="0.4" stroke-linecap="round" stroke-linejoin="round"></path>
            <path d="M17.6818831,15.2762614 L17.3717644,14.8465421 C17.3253915,14.7822789 17.3369847,14.6920509 17.3981712,14.6407702 L18.8853237,13.3889368 C18.9526288,13.3321386 19.0534254,13.3438228 19.1046288,13.4149018 L19.4833407,14.0951825 C19.5345441,14.1659368 19.514578,14.2662263 19.4405102,14.3132877 L17.8844424,15.3145596 C17.8168153,15.3574018 17.728578,15.3405246 17.6818831,15.2762614" id="Fill-77" fill="#FEFEFE"></path>
            <path d="M17.6818831,15.2762614 L17.3717644,14.8465421 C17.3253915,14.7822789 17.3369847,14.6920509 17.3981712,14.6407702 L18.8853237,13.3889368 C18.9526288,13.3321386 19.0534254,13.3438228 19.1046288,13.4149018 L19.4833407,14.0951825 C19.5345441,14.1659368 19.514578,14.2662263 19.4405102,14.3132877 L17.8844424,15.3145596 C17.8168153,15.3574018 17.728578,15.3405246 17.6818831,15.2762614 Z" id="Stroke-79" stroke="#231F20" stroke-width="0.4" stroke-linecap="round" stroke-linejoin="round"></path>
            <path d="M18.8423644,16.6555175 L18.4688051,16.2910351 C18.4127712,16.2361842 18.4069746,16.1485526 18.4559237,16.0901316 L19.6413305,14.6708246 C19.6951102,14.6065614 19.7930085,14.6029912 19.854839,14.6630351 L20.3578559,15.2673684 C20.4193644,15.3274123 20.4190424,15.4260789 20.3572119,15.4822281 L19.0420254,16.6620088 C18.9853475,16.7129649 18.8983983,16.7100439 18.8423644,16.6555175" id="Fill-81" fill="#FEFEFE"></path>
            <path d="M18.8423644,16.6555175 L18.4688051,16.2910351 C18.4127712,16.2361842 18.4069746,16.1485526 18.4559237,16.0901316 L19.6413305,14.6708246 C19.6951102,14.6065614 19.7930085,14.6029912 19.854839,14.6630351 L20.3578559,15.2673684 C20.4193644,15.3274123 20.4190424,15.4260789 20.3572119,15.4822281 L19.0420254,16.6620088 C18.9853475,16.7129649 18.8983983,16.7100439 18.8423644,16.6555175 Z" id="Stroke-83" stroke="#231F20" stroke-width="0.4" stroke-linecap="round" stroke-linejoin="round"></path>
            <path d="M20.2103644,17.6990798 L19.7817373,17.4030798 C19.7173305,17.3589395 19.6951102,17.2761763 19.731178,17.2141851 L20.5987373,15.7088693 C20.6380254,15.6407114 20.7310932,15.6241588 20.8019407,15.6731675 L21.441822,16.2203781 C21.5126695,16.2693868 21.5313475,16.3628605 21.4820763,16.4245272 L20.4035847,17.6783079 C20.358822,17.734457 20.2744492,17.7435447 20.2103644,17.6990798" id="Fill-85" fill="#FEFEFE"></path>
            <path d="M20.2103644,17.6990798 L19.7817373,17.4030798 C19.7173305,17.3589395 19.6951102,17.2761763 19.731178,17.2141851 L20.5987373,15.7088693 C20.6380254,15.6407114 20.7310932,15.6241588 20.8019407,15.6731675 L21.441822,16.2203781 C21.5126695,16.2693868 21.5313475,16.3628605 21.4820763,16.4245272 L20.4035847,17.6783079 C20.358822,17.734457 20.2744492,17.7435447 20.2103644,17.6990798 Z" id="Stroke-87" stroke="#231F20" stroke-width="0.4" stroke-linecap="round" stroke-linejoin="round"></path>
            <path d="M21.8774695,18.4584886 L21.4027915,18.2452518 C21.331622,18.2134447 21.292978,18.1417167 21.3135881,18.0813482 L21.7831136,16.6860588 C21.8063,16.6195237 21.8922831,16.5929096 21.9705373,16.6282868 L22.7173339,16.9466816 C22.7959102,16.9820588 22.8339102,17.0641728 22.8000966,17.1258395 L22.0581305,18.4156465 C22.0275373,18.4717956 21.948639,18.4902956 21.8774695,18.4584886" id="Fill-89" fill="#FEFEFE"></path>
            <path d="M21.8774695,18.4584886 L21.4027915,18.2452518 C21.331622,18.2134447 21.292978,18.1417167 21.3135881,18.0813482 L21.7831136,16.6860588 C21.8063,16.6195237 21.8922831,16.5929096 21.9705373,16.6282868 L22.7173339,16.9466816 C22.7959102,16.9820588 22.8339102,17.0641728 22.8000966,17.1258395 L22.0581305,18.4156465 C22.0275373,18.4717956 21.948639,18.4902956 21.8774695,18.4584886 Z" id="Stroke-91" stroke="#231F20" stroke-width="0.4" stroke-linecap="round" stroke-linejoin="round"></path>
            <path d="M23.5272492,18.9878158 L23.0245542,18.8547456 C22.9491983,18.8349474 22.8992831,18.7706842 22.9102322,18.7077193 L23.1762322,17.2452456 C23.1881475,17.1757895 23.268978,17.1355439 23.3517407,17.157614 L24.1017576,17.3559211 C24.1848424,17.3779912 24.2354017,17.4526404 24.2122153,17.5191754 L23.6985712,18.9160877 C23.677639,18.9764561 23.6022831,19.0079386 23.5272492,18.9878158" id="Fill-93" fill="#FEFEFE"></path>
            <path d="M23.5272492,18.9878158 L23.0245542,18.8547456 C22.9491983,18.8349474 22.8992831,18.7706842 22.9102322,18.7077193 L23.1762322,17.2452456 C23.1881475,17.1757895 23.268978,17.1355439 23.3517407,17.157614 L24.1017576,17.3559211 C24.1848424,17.3779912 24.2354017,17.4526404 24.2122153,17.5191754 L23.6985712,18.9160877 C23.677639,18.9764561 23.6022831,19.0079386 23.5272492,18.9878158 Z" id="Stroke-95" stroke="#231F20" stroke-width="0.4" stroke-linecap="round" stroke-linejoin="round"></path>
            <path d="M25.2713847,19.4229877 L24.7686898,19.2899175 C24.6933339,19.2701193 24.6434186,19.2058561 24.6543678,19.1428912 L24.8852661,17.7278035 C24.8971814,17.6583474 24.9776898,17.6181018 25.0607746,17.6398474 L25.8107915,17.8384789 C25.8935542,17.8602246 25.9441136,17.9351982 25.9209271,18.0017333 L25.4427068,19.3512596 C25.4217746,19.4116281 25.3464186,19.4431105 25.2713847,19.4229877" id="Fill-97" fill="#FEFEFE"></path>
            <path d="M25.2713847,19.4229877 L24.7686898,19.2899175 C24.6933339,19.2701193 24.6434186,19.2058561 24.6543678,19.1428912 L24.8852661,17.7278035 C24.8971814,17.6583474 24.9776898,17.6181018 25.0607746,17.6398474 L25.8107915,17.8384789 C25.8935542,17.8602246 25.9441136,17.9351982 25.9209271,18.0017333 L25.4427068,19.3512596 C25.4217746,19.4116281 25.3464186,19.4431105 25.2713847,19.4229877 Z" id="Stroke-99" stroke="#231F20" stroke-width="0.4" stroke-linecap="round" stroke-linejoin="round"></path>
            <path d="M26.9922695,19.7393053 L26.4895746,19.6065596 C26.4142186,19.5864368 26.3643034,19.5221737 26.3752525,19.4592088 L26.6029305,18.2002351 C26.6151678,18.1307789 26.6956763,18.0905333 26.778439,18.1126035 L27.528778,18.3109105 C27.6115407,18.3326561 27.6621,18.4076298 27.6389136,18.4741649 L27.1635915,19.6675772 C27.1426593,19.7279456 27.0673034,19.7594281 26.9922695,19.7393053" id="Fill-101" fill="#FEFEFE"></path>
            <path d="M26.9922695,19.7393053 L26.4895746,19.6065596 C26.4142186,19.5864368 26.3643034,19.5221737 26.3752525,19.4592088 L26.6029305,18.2002351 C26.6151678,18.1307789 26.6956763,18.0905333 26.778439,18.1126035 L27.528778,18.3109105 C27.6115407,18.3326561 27.6621,18.4076298 27.6389136,18.4741649 L27.1635915,19.6675772 C27.1426593,19.7279456 27.0673034,19.7594281 26.9922695,19.7393053 Z" id="Stroke-103" stroke="#231F20" stroke-width="0.4" stroke-linecap="round" stroke-linejoin="round"></path>
            <polyline id="Stroke-105" stroke="#231F20" stroke-width="0.4" points="19.7549763 34.6219061 18.8223661 35.7039939 19.8422475 36.7318798"></polyline>
        </g>
    </g>
</svg>