<?xml version="1.0" encoding="utf-8"?>
<!-- Generator: Adobe Illustrator 21.1.0, SVG Export Plug-In . SVG Version: 6.00 Build 0)  -->
<svg version="1.1" id="Layer_1" xmlns="http://www.w3.org/2000/svg" xmlns:xlink="http://www.w3.org/1999/xlink" x="0px" y="0px"
	 viewBox="0 0 600 600" height="60" width="60" style="enable-background:new 0 0 600 600;" xml:space="preserve">
<style type="text/css">
	.st0{fill:#C8202F;}
	.st1{fill:#FFFFFF;}
</style>
<path fill="#C8202F" class="st0" d="M299.7,25c-151.7,0-275,123.4-275,275c0,151.6,123.3,275,275,275c151.6,0,275-123.4,275-275
	C574.7,148.4,451.3,25,299.7,25"/>
<path fill="#FFFFFF" class="st1" d="M470,291.9l-22.5,16.3l8.6-26.4l-22.5-16.3h27.8L470,239l8.6,26.5h27.8l-22.5,16.3l8.6,26.4L470,291.9z
	 M301.5,482.1c-19.6,0-38.4-3.2-56-8.9l176-148.8l60,0C469.8,413.4,393.7,482.1,301.5,482.1 M182.7,437.7l230.8-194.9
	c2.6-2.2,1.9-4-1.5-4h-64.6c-3.4,0-8.3,1.8-10.9,4L149.9,400.4c-3.3-4.9-6.2-10-9-15.2l168.9-142.4c2.6-2.2,1.9-4-1.4-4h-64.6
	c-3.4,0-8.3,1.8-10.9,4l-109.5,92.3c-2.2-11.2-3.4-22.7-3.4-34.6c0-100.2,81.3-181.5,181.5-181.5c72.2,0,134.6,42.2,163.8,103.2
	L197.1,449.1C192.1,445.5,187.3,441.8,182.7,437.7 M299.7,77.1c-122.9,0-222.9,100-222.9,222.9c0,122.9,100,222.9,222.9,222.9
	c122.9,0,222.9-100,222.9-222.9C522.6,177.1,422.6,77.1,299.7,77.1"/>
<path fill="#C8202F" class="st0" d="M554.5,515.8h1.4c2,0,3.3,0.1,3.8,0.2c0.5,0.2,0.9,0.4,1.2,0.7c0.3,0.3,0.4,0.7,0.4,1.2c0,0.5-0.1,0.9-0.4,1.2
	c-0.3,0.4-0.7,0.6-1.2,0.7c-0.5,0.1-1.8,0.2-3.8,0.2h-1.4V515.8z M554.5,529.1v-6.5h0.9c1,0,1.8,0.2,2.4,0.7
	c0.6,0.4,1.5,1.5,2.4,3.3l1.5,2.6h4.4l-2-3.2c-0.7-1.1-1.2-1.8-1.3-1.9c-0.5-0.6-0.9-1-1.2-1.2c-0.3-0.2-0.7-0.4-1.2-0.6
	c1.5-0.2,2.6-0.7,3.5-1.5c0.8-0.8,1.2-1.8,1.2-2.9c0-0.8-0.2-1.6-0.7-2.3c-0.4-0.7-1-1.2-1.6-1.5c-0.6-0.3-1.6-0.5-2.7-0.6
	c-0.4,0-2.3,0-5.6,0H551v15.8H554.5z M564.9,510.7c2.1,1,3.7,2.5,4.9,4.4c1.2,1.9,1.8,3.9,1.8,6c0,2.1-0.6,4.1-1.8,6
	c-1.2,1.9-2.8,3.4-4.9,4.4c-2.1,1.1-4.3,1.6-6.5,1.6c-2.3,0-4.5-0.5-6.5-1.6c-2.1-1.1-3.7-2.5-4.9-4.4c-1.2-1.9-1.7-3.9-1.7-6
	c0-2.1,0.6-4.1,1.8-6c1.2-1.9,2.8-3.4,4.9-4.4c2.1-1,4.2-1.5,6.5-1.5S562.8,509.7,564.9,510.7 M550.3,508.2
	c-2.6,1.3-4.6,3.1-6.1,5.5c-1.5,2.4-2.2,4.9-2.2,7.5c0,2.6,0.7,5.1,2.2,7.4c1.4,2.4,3.5,4.2,6,5.5c2.6,1.3,5.3,2,8.2,2
	s5.6-0.7,8.2-2c2.6-1.3,4.6-3.1,6-5.5c1.4-2.4,2.2-4.8,2.2-7.4c0-2.6-0.7-5.1-2.2-7.5c-1.5-2.4-3.5-4.2-6.1-5.5
	c-2.6-1.3-5.3-1.9-8.1-1.9C555.5,506.2,552.8,506.9,550.3,508.2"/>
</svg>
