<?xml version="1.0" encoding="UTF-8"?>
<svg width="424px" height="490px" viewBox="0 0 424 490" version="1.1" xmlns="http://www.w3.org/2000/svg" xmlns:xlink="http://www.w3.org/1999/xlink">
    <!-- Generator: Sketch 50 (54983) - http://www.bohemiancoding.com/sketch -->
    <title>helmet-icon-tile-hover</title>
    <desc>Created with Sketch.</desc>
    <defs>
        <polyline id="path-1" points="2.17564174 4.33793132 6.46135603 8.60231357 2.17564174 12.8379313"></polyline>
        <polyline id="path-2" points="2.17564174 4.33793132 6.46135603 8.60231357 2.17564174 12.8379313"></polyline>
        <polyline id="path-3" points="2.17564174 4.33793132 6.46135603 8.60231357 2.17564174 12.8379313"></polyline>
    </defs>
    <g id="helmet-icon-tile-hover" stroke="none" stroke-width="1" fill="none" fill-rule="evenodd">
        <g id="Group-15">
            <rect id="Rectangle-5-Copy-3" fill="#009CDA" x="0" y="0" width="423" height="490" rx="4"></rect>
            <polygon id="Path-4" fill="#006FAB" opacity="0.15" points="268.569336 89.1635501 427.282227 335.488281 427.282227 490 300.988281 490 139.12793 231.356445 134.735352 213.822266 143.522564 102.810034"></polygon>
            <g id="Group-2" transform="translate(128.000000, 58.000000)">
                <path d="M55.0596,7.5106 C55.0596,7.5106 59.4096,6.2396 65.0796,6.2446" id="Stroke-11" stroke="#FEFEFE"></path>
                <path d="M111.7744,7.5106 C111.7744,7.5106 107.4234,6.2396 101.7534,6.2446" id="Stroke-44" stroke="#FEFEFE"></path>
                <g id="Group">
                    <path d="M60.417,133 L106.417,133 L106.417,126.417 L60.417,126.417 L60.417,133 Z M64.75,104.917 C64.75,104.917 76.75,89.25 78.61,87.463 C82.774,87.463 83.354,87.329 83.417,87.273 C83.479,87.329 84.059,87.463 88.224,87.463 C90.083,89.25 102.083,104.917 102.083,104.917 L102.083,122.417 L102.083,123.158 L64.75,123.158 L64.75,104.917 Z M83.416,218.037 C83.416,218.037 24.831,222.417 9.957,154.917 C9.957,152.385 9.954,143.492 9.951,135.328 L22.865,135.403 L28.27,141.693 L35.525,141.693 L45.583,135.75 C45.583,135.75 48.917,137.898 52.75,138.48 C59.75,140.25 60.417,136.917 60.417,136.917 L60.417,136 L106.417,136 L106.417,136.917 C106.417,136.917 107.083,140.25 114.083,138.48 C117.917,137.898 121.25,135.75 121.25,135.75 L131.309,141.693 L138.563,141.693 L143.968,135.403 L156.883,135.328 C156.88,143.492 156.876,152.385 156.876,154.917 C142.003,222.417 83.417,218.037 83.417,218.037 L83.416,218.037 Z M84.083,221.037 C143.75,219.324 158.354,163.375 158.354,163.375 L161.083,163.375 L162.5,161.75 L162.5,157.5 L163.917,155.173 L163.917,147 L159.832,144.246 L159.832,135.328 L162.458,135.328 L162.458,133 L159.832,133 L159.832,120.088 L156.889,120.104 L156.889,115.708 L158.711,115.708 L158.711,109.292 L156.889,109.292 L156.889,103 L158.711,103 L158.711,96.583 L156.889,96.583 L156.876,94.083 L157.96,93.187 L157.96,87.75 L159.083,87.25 C159.083,87.25 158.762,80.5 159.083,80.5 C164.333,80.5 166.333,76.25 166.333,76.25 C166.333,76.25 166.083,63.25 166.333,59.5 C162.833,54.75 159.083,55.25 159.083,55.25 L159.083,48 C159.083,48 155.833,46.5 154.333,44.5 C139.833,10 115.333,0.5 115.333,0.5 L111.271,7.511 L105.979,6.469 C105.979,6.469 101.583,7.5 101.833,4.75 C94.083,3 83.417,3.417 83.417,3.417 C83.417,3.417 72.75,3 65,4.75 C65.25,7.5 60.854,6.469 60.854,6.469 L55.563,7.511 L51.5,0.5 C51.5,0.5 27,10 12.5,44.5 C11,46.5 7.75,48 7.75,48 L7.75,55.25 C7.75,55.25 4,54.75 0.5,59.5 C0.75,63.25 0.5,76.25 0.5,76.25 C0.5,76.25 2.5,80.5 7.75,80.5 C8.072,80.5 7.75,87.25 7.75,87.25 L8.874,87.506 L8.874,93.5 L10.208,94.5 L9.945,96.583 L8.123,96.583 L8.123,103 L9.945,103 L9.945,109.292 L8.123,109.292 L8.123,115.708 L9.945,115.708 L9.945,120.104 L7.001,120.088 L7.001,133 L4.375,133 L4.375,135.328 L7.001,135.328 L7.001,144.246 L2.917,147 L2.917,155.173 L4.333,157.5 L4.333,161.75 L5.75,163.375 L8.479,163.375 C8.479,163.375 23.083,219.324 82.75,221.037 L84.083,221.037 Z" id="Fill-1" fill="#006FAB"></path>
                    <polyline id="Stroke-3" stroke="#FEFEFE" points="83.417 74.4999 72.75 74.4999 69 80.4999"></polyline>
                    <path d="M52.75,80.4999 C52.75,80.4999 38.75,66.9999 7.75,55.2499 C7.75,55.2499 13.25,69.4999 16.5,71.2499 C18.312,71.4689 20.406,71.5619 21.837,71.3989 C23.053,71.2599 24.189,70.7669 24.698,69.6529 C25.38,68.1609 26.359,65.9639 27.215,63.8229" id="Stroke-4" stroke="#FEFEFE" stroke-linejoin="round"></path>
                    <path d="M83.417,49.2499 L55.25,49.2499 C55.25,49.2499 25.679,44.4899 23.839,24.2449" id="Stroke-5" stroke="#FEFEFE"></path>
                    <path d="M83.417,55.2499 L53.507,55.2499 C51.678,55.2499 49.857,54.9989 48.096,54.5039 L12.5,44.4999" id="Stroke-6" stroke="#FEFEFE"></path>
                    <path d="M83.417,59.4999 L55.019,59.4999 C52.517,59.4999 50.025,59.1759 47.606,58.5369 L7.75,47.9999" id="Stroke-7" stroke="#FEFEFE"></path>
                    <path d="M41.5405,44.954 L35.9075,51.079" id="Stroke-8" stroke="#FEFEFE"></path>
                    <path d="M29.5747,36.7479 L20.5007,46.7479" id="Stroke-9" stroke="#FEFEFE"></path>
                    <polyline id="Stroke-10" stroke="#FEFEFE" stroke-linejoin="round" points="83.417 27.4169 65.75 27.4169 59.75 16.7499"></polyline>
                    <path d="M59.75,72.7499 C59.75,70.6789 61.429,68.9999 63.5,68.9999 C65.571,68.9999 67.25,70.6789 67.25,72.7499 C67.25,74.8209 65.571,76.4999 63.5,76.4999 C61.429,76.4999 59.75,74.8209 59.75,72.7499 Z" id="Stroke-12" stroke="#FEFEFE"></path>
                    <polyline id="Stroke-13" stroke="#FEFEFE" points="83.417 87.2499 7.75 87.2499 7.75 80.4999"></polyline>
                    <polyline id="Stroke-14" stroke="#FEFEFE" stroke-linejoin="round" points="78.6104 87.4628 64.7504 104.9168 64.7504 123.4168"></polyline>
                    <polyline id="Stroke-15" stroke="#FEFEFE" stroke-linejoin="round" points="72.9063 87.4999 60.5833 102.9169 60.5833 113.4169 29.6253 87.2499"></polyline>
                    <path d="M23.8394,87.9169 L60.4164,118.5829 L60.4164,137.5829 C60.4164,137.5829 58.5834,141.9169 45.5834,135.7499 C40.7504,125.4169 23.8394,87.9169 23.8394,87.9169 Z" id="Stroke-16" stroke="#FEFEFE" stroke-linejoin="round"></path>
                    <path d="M22.8652,135.4032 L27.6832,141.1522 C28.2532,141.8472 29.1042,142.2502 30.0032,142.2502 L33.4902,142.2502 C34.2052,142.2502 34.9082,142.0572 35.5252,141.6932 L45.5832,135.7502" id="Stroke-17" stroke="#FEFEFE"></path>
                    <path d="M16.4165,127.7079 L20.7015,132.8209" id="Stroke-18" stroke="#FEFEFE"></path>
                    <path d="M60.4165,123.4169 L83.4165,123.4169" id="Stroke-19" stroke="#FEFEFE"></path>
                    <path d="M60.4165,126.4169 L83.4165,126.4169" id="Stroke-20" stroke="#FEFEFE"></path>
                    <path d="M60.4165,132.9999 L83.4165,132.9999" id="Stroke-21" stroke="#FEFEFE"></path>
                    <path d="M60.4165,135.9999 L83.4165,135.9999" id="Stroke-22" stroke="#FEFEFE"></path>
                    <path d="M27.9165,127.7079 C27.9165,130.6189 25.5355,132.9999 22.6245,132.9999 L10.2085,132.9999" id="Stroke-23" stroke="#FEFEFE"></path>
                    <path d="M10.2085,132.9999 L22.6255,132.9999 C25.5355,132.9999 27.9165,130.6189 27.9165,127.7079 C27.9165,125.2349 26.1975,123.1449 23.8965,122.5719" id="Stroke-24" stroke="#FEFEFE"></path>
                    <polyline id="Stroke-25" stroke="#FEFEFE" points="7.001 135.328 4.375 135.328 4.375 133 7.001 133"></polyline>
                    <path d="M23.688,120.1044 C27.65,120.3624 30.813,123.6834 30.813,127.7084 C30.813,131.8994 27.383,135.3284 23.192,135.3284 L9.945,135.3284" id="Stroke-26" stroke="#FEFEFE"></path>
                    <path d="M14.5,127.7079 L14.5,91.6599 C14.5,91.0819 14.75,90.5319 15.186,90.1519 L18.515,87.2499" id="Stroke-27" stroke="#FEFEFE" stroke-linejoin="round"></path>
                    <path d="M23.8394,87.9169 L23.8394,124.9999 C23.8394,124.9999 24.0214,127.9579 20.5104,127.7079 L11.3734,127.7079 C11.3734,127.7079 9.7914,127.7079 9.9574,125.1249" id="Stroke-28" stroke="#FEFEFE"></path>
                    <path d="M9.957,115.7499 L9.957,120.0879" id="Stroke-29" stroke="#FEFEFE" stroke-linejoin="round"></path>
                    <path d="M9.957,102.9999 L9.957,109.2499" id="Stroke-30" stroke="#FEFEFE" stroke-linejoin="round"></path>
                    <polyline id="Stroke-31" stroke="#FEFEFE" stroke-linejoin="round" points="8.8735 87.7499 8.8735 94.0829 9.9565 94.0829 9.9565 96.4999"></polyline>
                    <polygon id="Stroke-32" stroke="#FEFEFE" stroke-linejoin="round" points="8.123 115.75 11.768 115.75 11.768 109.25 8.123 109.25"></polygon>
                    <polygon id="Stroke-33" stroke="#FEFEFE" stroke-linejoin="round" points="8.123 103 11.768 103 11.768 96.5 8.123 96.5"></polygon>
                    <polyline id="Stroke-34" stroke="#FEFEFE" stroke-linejoin="round" points="7.001 144.246 2.917 147 2.917 155.173 4.334 157.5 4.334 161.75 5.75 163.375 8.479 163.375"></polyline>
                    <path d="M83.417,3.4169 C83.417,3.4169 94.083,2.9999 101.833,4.7499 C101.583,7.4999 101.833,14.7499 101.833,14.7499 L107.083,16.7499 L115.333,0.4999 C115.333,0.4999 139.833,9.9999 154.333,44.4999 C155.833,46.4999 159.083,47.9999 159.083,47.9999 L159.083,55.2499 C159.083,55.2499 162.833,54.7499 166.333,59.4999 C166.083,63.2499 166.333,76.2499 166.333,76.2499 C166.333,76.2499 164.333,80.4999 159.083,80.4999 L83.417,80.4999" id="Stroke-35" stroke="#FEFEFE" stroke-linejoin="round"></path>
                    <polyline id="Stroke-36" stroke="#FEFEFE" points="83.417 74.4999 94.083 74.4999 97.833 80.4999"></polyline>
                    <path d="M114.083,80.4999 C114.083,80.4999 128.083,66.9999 159.083,55.2499 C159.083,55.2499 153.583,69.4999 150.333,71.2499 C148.521,71.4689 146.427,71.5619 144.996,71.3989 C143.78,71.2599 142.645,70.7669 142.136,69.6529 C141.453,68.1609 140.475,65.9639 139.618,63.8229" id="Stroke-37" stroke="#FEFEFE" stroke-linejoin="round"></path>
                    <path d="M83.417,49.2499 L111.583,49.2499 C111.583,49.2499 141.155,44.4899 142.994,24.2449" id="Stroke-38" stroke="#FEFEFE"></path>
                    <path d="M83.417,55.2499 L113.326,55.2499 C115.155,55.2499 116.977,54.9989 118.737,54.5039 L154.333,44.4999" id="Stroke-39" stroke="#FEFEFE"></path>
                    <path d="M83.417,59.4999 L111.814,59.4999 C114.316,59.4999 116.808,59.1759 119.227,58.5369 L159.083,47.9999" id="Stroke-40" stroke="#FEFEFE"></path>
                    <path d="M125.293,44.954 L130.926,51.079" id="Stroke-41" stroke="#FEFEFE"></path>
                    <path d="M137.2588,36.7479 L146.3328,46.7479" id="Stroke-42" stroke="#FEFEFE"></path>
                    <polyline id="Stroke-43" stroke="#FEFEFE" stroke-linejoin="round" points="83.417 27.4169 101.083 27.4169 107.083 16.7499"></polyline>
                    <path d="M107.083,72.7499 C107.083,70.6789 105.404,68.9999 103.333,68.9999 C101.263,68.9999 99.583,70.6789 99.583,72.7499 C99.583,74.8209 101.263,76.4999 103.333,76.4999 C105.404,76.4999 107.083,74.8209 107.083,72.7499 Z" id="Stroke-45" stroke="#FEFEFE"></path>
                    <polyline id="Stroke-46" stroke="#FEFEFE" points="83.417 87.2499 159.083 87.2499 159.083 80.4999"></polyline>
                    <polyline id="Stroke-47" stroke="#FEFEFE" stroke-linejoin="round" points="88.2236 87.4628 102.0826 104.9168 102.0826 123.4168"></polyline>
                    <polyline id="Stroke-48" stroke="#FEFEFE" stroke-linejoin="round" points="93.9268 87.4999 106.2498 102.9169 106.2498 113.4169 137.2078 87.2499"></polyline>
                    <path d="M142.9941,87.9169 L106.4171,118.5829 L106.4171,137.5829 C106.4171,137.5829 108.2501,141.9169 121.2501,135.7499 C126.0831,125.4169 142.9941,87.9169 142.9941,87.9169 Z" id="Stroke-49" stroke="#FEFEFE" stroke-linejoin="round"></path>
                    <path d="M143.9678,135.4032 L139.1508,141.1522 C138.5798,141.8472 137.7298,142.2502 136.8308,142.2502 L133.3438,142.2502 C132.6278,142.2502 131.9248,142.0572 131.3088,141.6932 L121.2498,135.7502" id="Stroke-50" stroke="#FEFEFE"></path>
                    <path d="M150.417,127.7079 L146.132,132.8209" id="Stroke-51" stroke="#FEFEFE"></path>
                    <path d="M106.417,123.4169 L83.417,123.4169" id="Stroke-52" stroke="#FEFEFE"></path>
                    <path d="M106.417,126.4169 L83.417,126.4169" id="Stroke-53" stroke="#FEFEFE"></path>
                    <path d="M106.417,132.9999 L83.417,132.9999" id="Stroke-54" stroke="#FEFEFE"></path>
                    <path d="M106.417,135.9999 L83.417,135.9999" id="Stroke-55" stroke="#FEFEFE"></path>
                    <path d="M138.917,127.7079 C138.917,130.6189 141.298,132.9999 144.208,132.9999 L156.625,132.9999" id="Stroke-56" stroke="#FEFEFE"></path>
                    <path d="M156.625,132.9999 L144.208,132.9999 C141.298,132.9999 138.917,130.6189 138.917,127.7079 C138.917,125.2349 140.636,123.1449 142.937,122.5719" id="Stroke-57" stroke="#FEFEFE"></path>
                    <polyline id="Stroke-58" stroke="#FEFEFE" points="159.832 135.328 162.458 135.328 162.458 133 159.832 133"></polyline>
                    <path d="M143.1455,120.1044 C139.1825,120.3624 136.0205,123.6834 136.0205,127.7084 C136.0205,131.8994 139.4505,135.3284 143.6405,135.3284 L156.8885,135.3284" id="Stroke-59" stroke="#FEFEFE"></path>
                    <path d="M152.333,127.7079 L152.333,91.6599 C152.333,91.0819 152.083,90.5319 151.647,90.1519 L148.318,87.2499" id="Stroke-60" stroke="#FEFEFE" stroke-linejoin="round"></path>
                    <path d="M142.9941,87.9169 L142.9941,124.9999 C142.9941,124.9999 142.8121,127.9579 146.3231,127.7079 L155.4601,127.7079 C155.4601,127.7079 157.0421,127.7079 156.8761,125.1249" id="Stroke-61" stroke="#FEFEFE"></path>
                    <path d="M156.876,115.7499 L156.876,120.0879" id="Stroke-62" stroke="#FEFEFE" stroke-linejoin="round"></path>
                    <path d="M156.876,102.9999 L156.876,109.2499" id="Stroke-63" stroke="#FEFEFE" stroke-linejoin="round"></path>
                    <polyline id="Stroke-64" stroke="#FEFEFE" stroke-linejoin="round" points="157.96 87.7499 157.96 94.0829 156.876 94.0829 156.876 96.4999"></polyline>
                    <polygon id="Stroke-65" stroke="#FEFEFE" stroke-linejoin="round" points="155.066 115.75 158.711 115.75 158.711 109.25 155.066 109.25"></polygon>
                    <polygon id="Stroke-66" stroke="#FEFEFE" stroke-linejoin="round" points="155.066 103 158.711 103 158.711 96.5 155.066 96.5"></polygon>
                    <path d="M83.416,218.037 C119.636,218.037 150.53,191.384 156.876,154.661 L156.876,154.917 L156.876,120.088 L159.832,120.088 L159.832,154.917 L159.832,155.173 C153.237,193.337 121.1,221.037 83.417,221.037 C45.734,221.037 13.596,193.337 7.001,155.173 L7.001,154.917 L7.001,120.088 L9.957,120.088 L9.957,154.917 L9.957,154.661 C16.303,191.384 47.197,218.037 83.416,218.037 Z" id="Stroke-67" stroke="#FEFEFE"></path>
                    <polyline id="Stroke-68" stroke="#FEFEFE" stroke-linejoin="round" points="159.832 144.246 163.917 147 163.917 155.173 162.5 157.5 162.5 161.75 161.083 163.375 158.354 163.375"></polyline>
                    <path d="M65,4.7499 C65.25,7.4999 65,14.7499 65,14.7499 L59.75,16.7499 L51.5,0.4999 C51.5,0.4999 27,9.9999 12.5,44.4999 C11,46.4999 7.75,47.9999 7.75,47.9999 L7.75,55.2499 C7.75,55.2499 4,54.7499 0.5,59.4999 C0.75,63.2499 0.5,76.2499 0.5,76.2499 C0.5,76.2499 2.5,80.4999 7.75,80.4999 L83.417,80.4999 L83.417,3.4169 C83.417,3.4169 72.75,2.9999 65,4.7499 Z" id="Stroke-69" stroke="#FEFEFE" stroke-linejoin="round"></path>
                </g>
            </g>
            <text id="HELMETS" font-family="AkzidenzGroteskBQ-BdCndIt, Akzidenz-Grotesk BQ" font-size="28" font-style="italic" font-weight="bold" fill="#FFFFFF">
                <tspan x="166.42" y="339">HELMETS</tspan>
            </text>
        </g>
        <text id="PLAYER-Copy-2" font-family="AkzidenzGroteskBQ-Cnd, Akzidenz-Grotesk BQ" font-size="21" font-style="condensed" font-weight="normal" line-spacing="30" letter-spacing="0.5" fill="#FFFFFF">
            <tspan x="43.342" y="425">PLAYER</tspan>
        </text>
        <text id="GOALIE-Copy-2" font-family="AkzidenzGroteskBQ-Cnd, Akzidenz-Grotesk BQ" font-size="21" font-style="condensed" font-weight="normal" line-spacing="30" letter-spacing="0.5" fill="#FFFFFF">
            <tspan x="186.3265" y="425">GOALIE</tspan>
        </text>
        <text id="STREET-Copy-2" font-family="AkzidenzGroteskBQ-Cnd, Akzidenz-Grotesk BQ" font-size="21" font-style="condensed" font-weight="normal" line-spacing="30" letter-spacing="0.5" fill="#FFFFFF">
            <tspan x="325.5625" y="425">STREET</tspan>
        </text>
        <g id="Group-5-Copy-6" transform="translate(391.500000, 417.500000) rotate(-90.000000) translate(-391.500000, -417.500000) translate(387.000000, 412.000000)" stroke="#FFFFFF" stroke-width="0.72">
            <g id="Group-7">
                <path d="M4.28571429,0.497680372 L4.28571429,10.3966273" id="Line-12" stroke-linecap="square"></path>
                <g id="Path-2" stroke-linecap="round" stroke-linejoin="round" transform="translate(4.318499, 8.587931) rotate(-270.000000) translate(-4.318499, -8.587931) ">
                    <use xlink:href="#path-1"></use>
                    <use xlink:href="#path-1"></use>
                </g>
            </g>
        </g>
        <g id="Group-5-Copy-7" transform="translate(247.500000, 417.500000) rotate(-90.000000) translate(-247.500000, -417.500000) translate(243.000000, 412.000000)" stroke="#FFFFFF" stroke-width="0.72">
            <g id="Group-7">
                <path d="M4.28571429,0.497680372 L4.28571429,10.3966273" id="Line-12" stroke-linecap="square"></path>
                <g id="Path-2" stroke-linecap="round" stroke-linejoin="round" transform="translate(4.318499, 8.587931) rotate(-270.000000) translate(-4.318499, -8.587931) ">
                    <use xlink:href="#path-2"></use>
                    <use xlink:href="#path-2"></use>
                </g>
            </g>
        </g>
        <g id="Group-5-Copy-8" transform="translate(107.500000, 417.500000) rotate(-90.000000) translate(-107.500000, -417.500000) translate(103.000000, 412.000000)" stroke="#FFFFFF" stroke-width="0.72">
            <g id="Group-7">
                <path d="M4.28571429,0.497680372 L4.28571429,10.3966273" id="Line-12" stroke-linecap="square"></path>
                <g id="Path-2" stroke-linecap="round" stroke-linejoin="round" transform="translate(4.318499, 8.587931) rotate(-270.000000) translate(-4.318499, -8.587931) ">
                    <use xlink:href="#path-3"></use>
                    <use xlink:href="#path-3"></use>
                </g>
            </g>
        </g>
    </g>
</svg>