<?xml version="1.0" encoding="UTF-8"?>
<svg width="423px" height="399px" viewBox="0 0 423 399" version="1.1" xmlns="http://www.w3.org/2000/svg" xmlns:xlink="http://www.w3.org/1999/xlink">
    <!-- Generator: Sketch 50 (54983) - http://www.bohemiancoding.com/sketch -->
    <title>Group 14</title>
    <desc>Created with Sketch.</desc>
    <defs></defs>
    <g id="Desktop-1920" stroke="none" stroke-width="1" fill="none" fill-rule="evenodd">
        <g id="Homepage_1920x1080" transform="translate(-986.000000, -1341.000000)">
            <g id="Group-14" transform="translate(986.000000, 1341.000000)">
                <rect id="Rectangle-5-Copy-2" fill="#131516" x="0" y="0" width="423" height="399" rx="4"></rect>
                <polygon id="Path-4" fill="#FFFFFF" opacity="0.06" points="295.169335 72 423 259.025391 422.458288 399 220.865524 399 66 155.241088 140.522564 101.810034"></polygon>
                <text id="PROTECTIVE" font-family="AkzidenzGroteskBQ-BdCndIt, Akzidenz-Grotesk BQ" font-size="28" font-style="italic" font-weight="bold" fill="#FFFFFF">
                    <tspan x="151.484" y="338">PROTECTIVE</tspan>
                </text>
                <g id="Page-1" transform="translate(64.000000, 58.000000)">
                    <path d="M143.314927,42.5915732 L124.778858,42.5915732 C121.631224,42.5915732 118.571841,43.6325244 116.076287,45.5510122 L99.3101497,58.4476951 C99.3101497,58.4476951 121.905784,88.5748171 125.47343,132.574207 C133.007487,141.692744 143.314927,140.900183 143.314927,140.900183" id="Fill-1" fill="#009CDA"></path>
                    <path d="M143.314927,42.5915732 L161.850995,42.5915732 C164.99863,42.5915732 168.058013,43.6325244 170.551933,45.5510122 L187.319704,58.4476951 C187.319704,58.4476951 164.722435,88.5748171 161.15479,132.574207 C153.622367,141.692744 143.314927,140.900183 143.314927,140.900183" id="Fill-3" fill="#009CDA"></path>
                    <path d="M137.130463,119.501854 C135.662874,119.060634 134.495994,117.93961 133.997537,116.490122 L118.311663,70.7814146 C117.773983,69.2142683 118.091034,67.480439 119.146783,66.2041707 L127.913091,55.6116341 C128.816851,54.5200244 130.160234,53.8892439 131.578794,53.8892439 L142.71972,53.8892439 L143.907846,53.8892439 L155.050406,53.8892439 C156.468966,53.8892439 157.812349,54.5200244 158.716109,55.6116341 L167.480783,66.2041707 C168.538166,67.480439 168.853583,69.2142683 168.315903,70.7814146 L152.630029,116.490122 C152.133206,117.93961 150.966326,119.060634 149.497103,119.501854 L137.130463,119.501854 Z" id="Fill-5" fill="#009CDA"></path>
                    <path d="M139.920189,87.5289634 L128.64852,73.8952805 C128.333103,72.8559634 128.517777,71.7087927 129.137171,70.863939 L134.280269,63.8501829 C134.809777,63.1262561 135.597503,62.7095488 136.429354,62.7095488 L142.964863,62.7095488 L143.662703,62.7095488 L150.198211,62.7095488 C151.030063,62.7095488 151.817789,63.1262561 152.347297,63.8501829 L157.490394,70.863939 C158.109789,71.7087927 158.294463,72.8559634 157.98068,73.8952805 L146.831583,87.5289634 L139.920189,87.5289634 Z" id="Fill-7" fill="#009CDA"></path>
                    <path d="M99.3096594,58.4478585 L81.272048,36.2479805 L72.3880709,7.42327317 C71.9549851,6.01790732 72.8897966,4.55698049 74.3492137,4.36578537 L101.064882,0.837663415 C102.223591,0.684053659 103.321831,1.39654146 103.655225,2.51429756 L111.004608,27.131078 L118.479831,43.5248341" id="Fill-9" fill="#242222"></path>
                    <path d="M73.69648,11.6720537 C50.1791086,11.6720537 29.7341943,30.5546146 29.7341943,53.8885902 L41.7265829,69.8296878 C59.8328343,71.0389561 79.8119771,64.9174439 89.7337257,46.6623951" id="Fill-11" fill="#242222"></path>
                    <polyline id="Fill-13" fill="#009CDA" points="104.969845 3.69447805 136.277856 32.8296732 138.062496 42.5920634"></polyline>
                    <polyline id="Fill-15" fill="#009CDA" points="181.568979 3.35931463 149.901425 32.8295098 148.116785 42.5919"></polyline>
                    <polyline id="Fill-17" fill="#009CDA" points="67.3963086 124.541398 82.8566514 124.541398 121.311394 140.917178 126.650606 169.669983"></polyline>
                    <path d="M29.8373177,51.0191927 L9.34827771,67.035461 C7.25966057,68.6696073 6.90828914,71.692778 8.56872343,73.7616073 L18.4626891,86.0847049 C19.2487806,87.0635585 20.3813406,87.7155829 21.6315691,87.8332415 C26.750152,88.3169488 40.3000149,87.7678756 46.186712,69.7922659" id="Fill-19" fill="#2C2C2C"></path>
                    <path d="M12.2264183,78.3177707 L3.53201829,87.6683561 C-0.154930286,91.631161 -0.0748502857,97.3425024 3.69871543,99.6793317 L26.0753554,113.545063 C31.3459269,116.810088 39.0074583,115.13999 44.153824,109.605137 L49.6074354,103.74182 C54.7538011,98.2053317 55.8634811,90.4431366 52.2239269,85.4246732 L44.2142926,74.6605512" id="Fill-21" fill="#2C2C2C"></path>
                    <path d="M187.319214,58.4478585 L205.356825,36.2479805 L214.240802,7.42327317 C214.673888,6.01790732 213.739077,4.55698049 212.278025,4.36578537 L185.563991,0.837663415 C184.405282,0.684053659 183.307042,1.39654146 182.973648,2.51429756 L175.624265,27.131078 L168.111454,43.6065415" id="Fill-23" fill="#242222"></path>
                    <path d="M212.931576,11.6720537 C236.448947,11.6720537 256.893862,30.5546146 256.893862,53.8885902 L244.901473,69.8296878 C226.795222,71.0389561 206.92721,64.7801756 197.005462,46.526761" id="Fill-25" fill="#242222"></path>
                    <polyline id="Fill-27" fill="#009CDA" points="219.232565 124.541398 203.772222 124.541398 165.317479 140.917178 159.976633 169.669983"></polyline>
                    <path d="M256.790738,51.0191927 L277.279778,67.035461 C279.368395,68.6696073 279.719767,71.692778 278.060967,73.7616073 L268.167001,86.0847049 C267.379275,87.0635585 266.246715,87.7155829 264.996487,87.8332415 C259.877904,88.3169488 246.329675,87.7678756 240.441344,69.7922659" id="Fill-29" fill="#242222"></path>
                    <path d="M274.402455,78.3177707 L283.096855,87.6683561 C286.782169,91.631161 286.702089,97.3425024 282.930158,99.6793317 L260.553518,113.545063 C255.284581,116.810088 247.621415,115.13999 242.475049,109.605137 L237.021438,103.74182 C231.875072,98.2053317 230.765392,90.4431366 234.404946,85.4246732 L242.326329,74.4840634" id="Fill-31" fill="#242222"></path>
                    <path d="M209.370958,59.761222 C199.125621,80.2501488 202.582135,101.655832 217.991815,116.134368 C219.299243,117.363246 220.171952,118.974515 219.874512,120.742661 L215.906466,144.241685 C215.631906,145.861124 214.543472,147.224002 213.023586,147.84988 L143.908009,176.279124 L142.719883,176.279124 L73.6043063,147.84988 C72.0860549,147.224002 70.9959863,145.861124 70.7230606,144.241685 L66.7550149,120.742661 C66.4559406,118.974515 67.3286491,117.363246 68.637712,116.134368 C84.0457577,101.655832 87.502272,80.2501488 77.2585691,59.761222 L89.1601562,44.1826172 L103.794922,2.77734375 L142.443359,11.2363281 L183.556641,2.78125 L209.370958,52.65625 L209.370958,59.761222 Z" id="Fill-33" fill="#242222"></path>
                    <path d="M199.126274,153.566778 C199.126274,153.566778 183.255726,192.036217 143.908663,199.618656 L142.718903,199.618656 C103.373474,192.036217 87.5029257,153.566778 87.5029257,153.566778" id="Fill-35" fill="#242222"></path>
                    <path d="M143.314927,42.5915732 L124.778858,42.5915732 C121.631224,42.5915732 118.571841,43.6325244 116.076287,45.5510122 L99.3101497,58.4476951 C99.3101497,58.4476951 121.905784,88.5748171 125.47343,132.574207 C133.007487,141.692744 143.314927,140.900183 143.314927,140.900183" id="Stroke-37" stroke="#FFFFFF" stroke-linejoin="round"></path>
                    <path d="M143.314927,42.5915732 L161.850995,42.5915732 C164.99863,42.5915732 168.058013,43.6325244 170.551933,45.5510122 L187.319704,58.4476951 C187.319704,58.4476951 164.722435,88.5748171 161.15479,132.574207 C153.622367,141.692744 143.314927,140.900183 143.314927,140.900183" id="Stroke-39" stroke="#FFFFFF" stroke-linejoin="round"></path>
                    <path d="M137.130463,119.501854 C135.662874,119.060634 134.495994,117.93961 133.997537,116.490122 L118.311663,70.7814146 C117.773983,69.2142683 118.091034,67.480439 119.146783,66.2041707 L127.913091,55.6116341 C128.816851,54.5200244 130.160234,53.8892439 131.578794,53.8892439 L142.71972,53.8892439 L143.907846,53.8892439 L155.050406,53.8892439 C156.468966,53.8892439 157.812349,54.5200244 158.716109,55.6116341 L167.480783,66.2041707 C168.538166,67.480439 168.853583,69.2142683 168.315903,70.7814146 L152.630029,116.490122 C152.133206,117.93961 150.966326,119.060634 149.497103,119.501854 L137.130463,119.501854 Z" id="Stroke-41" stroke="#FFFFFF"></path>
                    <path d="M139.920189,87.5289634 L128.64852,73.8952805 C128.333103,72.8559634 128.517777,71.7087927 129.137171,70.863939 L134.280269,63.8501829 C134.809777,63.1262561 135.597503,62.7095488 136.429354,62.7095488 L142.964863,62.7095488 L143.662703,62.7095488 L150.198211,62.7095488 C151.030063,62.7095488 151.817789,63.1262561 152.347297,63.8501829 L157.490394,70.863939 C158.109789,71.7087927 158.294463,72.8559634 157.98068,73.8952805 L146.831583,87.5289634 L139.920189,87.5289634 Z" id="Stroke-43" stroke="#FFFFFF"></path>
                    <path d="M99.3096594,58.4478585 L81.272048,36.2479805 L72.3880709,7.42327317 C71.9549851,6.01790732 72.8897966,4.55698049 74.3492137,4.36578537 L101.064882,0.837663415 C102.223591,0.684053659 103.321831,1.39654146 103.655225,2.51429756 L111.004608,27.131078 L118.479831,43.5248341" id="Stroke-45" stroke="#FFFFFF"></path>
                    <path d="M73.69648,11.6720537 C50.1791086,11.6720537 29.7341943,30.5546146 29.7341943,53.8885902 L41.7265829,69.8296878 C59.8328343,71.0389561 79.8119771,64.9174439 89.7337257,46.6623951" id="Stroke-47" stroke="#FFFFFF"></path>
                    <polyline id="Stroke-49" stroke="#FFFFFF" points="104.969845 3.69447805 136.277856 32.8296732 138.062496 42.5920634"></polyline>
                    <polyline id="Stroke-51" stroke="#FFFFFF" points="181.568979 3.35931463 149.901425 32.8295098 148.116785 42.5919"></polyline>
                    <polyline id="Stroke-53" stroke="#FFFFFF" points="67.3963086 124.541398 82.8566514 124.541398 121.311394 140.917178 126.650606 169.669983"></polyline>
                    <path d="M29.8373177,51.0191927 L9.34827771,67.035461 C7.25966057,68.6696073 6.90828914,71.692778 8.56872343,73.7616073 L18.4626891,86.0847049 C19.2487806,87.0635585 20.3813406,87.7155829 21.6315691,87.8332415 C26.750152,88.3169488 40.3000149,87.7678756 46.186712,69.7922659" id="Stroke-55" stroke="#FFFFFF"></path>
                    <path d="M12.2264183,78.3177707 L3.53201829,87.6683561 C-0.154930286,91.631161 -0.0748502857,97.3425024 3.69871543,99.6793317 L26.0753554,113.545063 C31.3459269,116.810088 39.0074583,115.13999 44.153824,109.605137 L49.6074354,103.74182 C54.7538011,98.2053317 55.8634811,90.4431366 52.2239269,85.4246732 L44.2142926,74.6605512" id="Stroke-57" stroke="#FFFFFF"></path>
                    <path d="M187.319214,58.4478585 L205.356825,36.2479805 L214.240802,7.42327317 C214.673888,6.01790732 213.739077,4.55698049 212.278025,4.36578537 L185.563991,0.837663415 C184.405282,0.684053659 183.307042,1.39654146 182.973648,2.51429756 L175.624265,27.131078 L168.111454,43.6065415" id="Stroke-59" stroke="#FFFFFF"></path>
                    <path d="M212.931576,11.6720537 C236.448947,11.6720537 256.893862,30.5546146 256.893862,53.8885902 L244.901473,69.8296878 C226.795222,71.0389561 206.92721,64.7801756 197.005462,46.526761" id="Stroke-61" stroke="#FFFFFF"></path>
                    <polyline id="Stroke-63" stroke="#FFFFFF" points="219.232565 124.541398 203.772222 124.541398 165.317479 140.917178 159.976633 169.669983"></polyline>
                    <path d="M256.790738,51.0191927 L277.279778,67.035461 C279.368395,68.6696073 279.719767,71.692778 278.060967,73.7616073 L268.167001,86.0847049 C267.379275,87.0635585 266.246715,87.7155829 264.996487,87.8332415 C259.877904,88.3169488 246.329675,87.7678756 240.441344,69.7922659" id="Stroke-65" stroke="#FFFFFF"></path>
                    <path d="M274.402455,78.3177707 L283.096855,87.6683561 C286.782169,91.631161 286.702089,97.3425024 282.930158,99.6793317 L260.553518,113.545063 C255.284581,116.810088 247.621415,115.13999 242.475049,109.605137 L237.021438,103.74182 C231.875072,98.2053317 230.765392,90.4431366 234.404946,85.4246732 L242.326329,74.4840634" id="Stroke-67" stroke="#FFFFFF"></path>
                    <polyline id="Stroke-69" stroke="#FFFFFF" points="182.973485 2.51511463 143.314273 10.9636512 103.655062 2.51511463"></polyline>
                    <path d="M209.370958,59.761222 C199.125621,80.2501488 202.582135,101.655832 217.991815,116.134368 C219.299243,117.363246 220.171952,118.974515 219.874512,120.742661 L215.906466,144.241685 C215.631906,145.861124 214.543472,147.224002 213.023586,147.84988 L143.908009,176.279124 L142.719883,176.279124 L73.6043063,147.84988 C72.0860549,147.224002 70.9959863,145.861124 70.7230606,144.241685 L66.7550149,120.742661 C66.4559406,118.974515 67.3286491,117.363246 68.637712,116.134368 C84.0457577,101.655832 87.502272,80.2501488 77.2585691,59.761222" id="Stroke-71" stroke="#FFFFFF"></path>
                    <path d="M199.126274,153.566778 C199.126274,153.566778 183.255726,192.036217 143.908663,199.618656 L142.718903,199.618656 C103.373474,192.036217 87.5029257,153.566778 87.5029257,153.566778" id="Stroke-73" stroke="#FFFFFF"></path>
                </g>
            </g>
        </g>
    </g>
</svg>