<?xml version="1.0" encoding="UTF-8"?>
<svg width="423px" height="399px" viewBox="0 0 423 399" version="1.1" xmlns="http://www.w3.org/2000/svg" xmlns:xlink="http://www.w3.org/1999/xlink">
    <!-- Generator: Sketch 50 (54983) - http://www.bohemiancoding.com/sketch -->
    <title>Group 13</title>
    <desc>Created with Sketch.</desc>
    <defs></defs>
    <g id="Desktop-1920" stroke="none" stroke-width="1" fill="none" fill-rule="evenodd">
        <g id="Homepage_1920x1080" transform="translate(-516.000000, -1340.000000)">
            <g id="Group-13" transform="translate(516.000000, 1340.000000)">
                <path d="M268.298536,40 L421.99913,270.461003 L422.000003,395 C422.000003,397.209139 420.209142,399 418.000003,399 C417.999712,399 417.999421,399 417.99913,399 L224.911669,398.956994 L134,257.271752 L174.136607,236.970822 L268.298536,40 Z" id="Path-4" fill="#006FAB" style="mix-blend-mode: multiply;" opacity="0.202044837"></path>
                <rect id="Rectangle-5-Copy" fill="#131516" x="0" y="0" width="423" height="399" rx="4"></rect>
                <polygon id="Path-4" fill="#FFFFFF" opacity="0.06" points="278.637303 40 422 269.941822 422 399 235.018233 398.328899 146 259.040333 185.454475 237.334898"></polygon>
                <text id="STICKS" font-family="AkzidenzGroteskBQ-BdCndIt, Akzidenz-Grotesk BQ" font-size="28" font-style="italic" font-weight="bold" fill="#FFFFFF">
                    <tspan x="177.396" y="339">STICKS</tspan>
                </text>
                <g id="Page-1" transform="translate(144.000000, 36.000000)">
                    <path d="M134.932355,3.81133491 L130.897688,2.11195949 L44.5397613,192.315973 C42.0094308,197.631005 37.4312482,201.689128 31.8535613,203.557797 C31.8535613,203.557797 7.5545265,211.702663 7.53546563,211.708626 C1.21440476,213.827722 3.31705694,228.142652 11.1177178,224.321839 L36.9940395,211.645422 C41.5257613,209.702818 45.1830656,206.153898 47.2666569,201.681973 L134.932355,3.81133491 Z" id="Fill-9-Copy" fill="#242222" transform="translate(69.375726, 113.539353) scale(-1, 1) rotate(1.000000) translate(-69.375726, -113.539353) "></path>
                    <path d="M1.74097217,4.77664813 L5.9963113,2.78992086 L96.0362852,191.978589 C98.5654243,197.293621 103.144798,201.351744 108.722485,203.220413 C108.722485,203.220413 133.020329,211.365279 133.040581,211.371242 C139.361642,213.490338 137.25899,227.805268 129.458329,223.984456 L103.580816,211.308039 C99.0502852,209.365434 95.3917896,205.816514 93.3081983,201.344589 L1.74097217,4.77664813 Z" id="Stroke-3" stroke="#FFFFFF"></path>
                    <path d="M125.974002,209.003268 L124.409819,221.511541" id="Stroke-5" stroke="#FFFFFF"></path>
                    <path d="M129.760801,210.382648 L128.140627,223.338113" id="Stroke-7" stroke="#FFFFFF"></path>
                    <path d="M135.611416,4.77664813 L131.354885,2.78992086 L41.3161026,191.978589 C38.7857722,197.293621 34.2075896,201.351744 28.6299026,203.220413 C28.6299026,203.220413 4.33086783,211.365279 4.31180696,211.371242 C-2.00925391,213.490338 0.0933982609,227.805268 7.89405913,223.984456 L33.7703809,211.308039 C38.3021026,209.365434 41.959407,205.816514 44.0429983,201.344589 L135.611416,4.77664813 Z" id="Fill-9" fill="#242222"></path>
                    <path d="M135.611416,4.77664813 L131.354885,2.78992086 L41.3161026,191.978589 C38.7857722,197.293621 34.2075896,201.351744 28.6299026,203.220413 C28.6299026,203.220413 4.33086783,211.365279 4.31180696,211.371242 C-2.00925391,213.490338 0.0933982609,227.805268 7.89405913,223.984456 L33.7703809,211.308039 C38.3021026,209.365434 41.959407,205.816514 44.0429983,201.344589 L135.611416,4.77664813 Z" id="Stroke-11" stroke="#FFFFFF"></path>
                    <path d="M11.3779096,209.003268 L12.9420922,221.511541" id="Stroke-13" stroke="#FFFFFF"></path>
                    <path d="M7.59158696,210.382648 L9.21176087,223.338113" id="Stroke-15" stroke="#FFFFFF"></path>
                </g>
            </g>
        </g>
    </g>
</svg>