<?xml version="1.0" standalone="no"?>
<!DOCTYPE svg PUBLIC "-//W3C//DTD SVG 20010904//EN"
 "http://www.w3.org/TR/2001/REC-SVG-20010904/DTD/svg10.dtd">
<svg version="1.0" xmlns="http://www.w3.org/2000/svg"
 width="2160.000000pt" height="1440.000000pt" viewBox="0 0 2160.000000 1440.000000"
 preserveAspectRatio="xMidYMid meet">
<metadata>
Created by potrace 1.15, written by Peter Selinger 2001-2017
</metadata>
<g transform="translate(0.000000,1440.000000) scale(0.100000,-0.100000)"
fill="#000000" stroke="none">
<path d="M0 7200 l0 -7200 10800 0 10800 0 0 7200 0 7200 -10800 0 -10800 0 0
-7200z m6231 1459 c69 -33 99 -72 106 -142 8 -76 -15 -144 -109 -329 -90 -179
-138 -238 -235 -286 -65 -33 -153 -59 -241 -70 l-57 -8 64 -22 c124 -42 181
-104 181 -195 0 -59 -11 -87 -130 -331 -110 -225 -150 -280 -241 -327 -110
-56 -45 -53 -1341 -56 -659 -2 -1198 -1 -1198 3 0 7 178 381 390 819 51 105
155 319 231 478 76 158 152 307 168 331 32 46 107 107 157 127 92 37 102 38
1164 36 l1035 -2 56 -26z m3029 9 c86 -41 120 -90 120 -176 0 -73 -15 -110
-175 -442 -81 -168 -164 -341 -185 -385 -21 -44 -94 -196 -163 -337 -142 -292
-167 -326 -290 -384 -114 -53 -158 -55 -1217 -52 -884 3 -948 4 -985 21 -100
45 -136 128 -104 241 6 22 78 176 159 342 167 342 195 381 309 437 l66 32 870
5 c750 4 873 7 893 20 31 19 162 279 162 320 0 19 -7 33 -19 40 -13 7 -323 10
-936 10 l-916 0 6 23 c26 88 147 231 223 264 94 41 108 42 1147 40 908 -2
1003 -4 1035 -19z m1410 18 c0 -2 -43 -93 -96 -202 -53 -110 -142 -296 -199
-414 -56 -118 -155 -323 -220 -455 -148 -304 -157 -324 -149 -347 3 -11 17
-23 31 -29 14 -5 260 -9 591 -9 520 0 570 1 602 18 38 18 64 67 259 472 47 96
122 252 167 345 45 94 125 260 178 370 53 110 102 211 110 225 l15 25 295 3
c163 1 296 -1 296 -5 0 -6 -94 -203 -405 -848 -45 -93 -144 -298 -219 -455
-82 -171 -152 -303 -175 -329 -52 -62 -121 -107 -205 -134 l-71 -22 -1000 0
c-782 0 -1008 3 -1036 13 -50 17 -99 71 -110 121 -19 84 -49 14 466 1084 l278
577 298 0 c165 0 299 -2 299 -4z m4665 -19 c83 -38 116 -89 116 -181 0 -77 -7
-95 -164 -418 -135 -278 -172 -330 -265 -381 -106 -58 -95 -57 -967 -57 -786
0 -801 0 -833 -20 -27 -17 -48 -50 -108 -173 -40 -84 -74 -158 -74 -164 0 -7
9 -22 20 -33 20 -20 33 -20 915 -20 492 0 895 -2 895 -5 0 -24 -73 -140 -116
-186 -76 -79 -162 -117 -291 -130 -58 -6 -468 -9 -1013 -7 -865 3 -917 4 -957
22 -54 23 -100 75 -109 122 -14 77 2 129 112 357 59 122 137 285 174 362 329
683 357 738 411 798 54 61 131 106 209 123 41 10 297 12 1030 11 915 -2 977
-3 1015 -20z m3040 0 c82 -37 118 -91 116 -177 -1 -79 -13 -112 -155 -402
-115 -236 -128 -257 -184 -311 -36 -34 -87 -70 -124 -87 -70 -32 -192 -60
-263 -60 -25 0 -45 -2 -45 -5 0 -3 64 -164 141 -357 78 -194 144 -359 146
-366 4 -10 -54 -12 -282 -10 l-288 3 -131 335 c-73 185 -136 342 -140 349 -24
38 -63 41 -486 41 -429 0 -454 -2 -490 -44 -8 -10 -87 -167 -175 -349 l-161
-332 -298 -3 c-237 -2 -297 0 -293 10 55 130 776 1593 803 1628 21 27 56 62
78 78 119 84 67 81 1201 79 929 -2 992 -3 1030 -20z"/>
<path d="M4360 8362 c-31 -15 -46 -38 -122 -192 -48 -96 -87 -178 -87 -183 -1
-4 309 -6 689 -5 l690 3 24 25 c13 14 54 89 91 167 71 152 75 176 28 194 -14
5 -283 9 -651 9 -577 0 -630 -1 -662 -18z"/>
<path d="M4007 7644 c-21 -12 -48 -55 -112 -186 -47 -93 -85 -176 -85 -184 0
-8 9 -23 20 -34 20 -20 33 -20 663 -20 625 0 643 1 675 20 27 17 49 53 127
216 52 108 95 198 95 200 0 2 -305 4 -677 4 -587 -1 -682 -3 -706 -16z"/>
<path d="M7096 7644 c-22 -13 -46 -53 -113 -191 -73 -151 -83 -179 -74 -199 6
-13 21 -26 33 -29 13 -3 296 -4 630 -3 l608 3 29 30 c16 17 70 114 119 218
l91 187 -647 0 c-566 -1 -651 -3 -676 -16z"/>
<path d="M13594 8356 c-27 -12 -74 -63 -74 -80 0 -3 -31 -68 -69 -145 -38 -76
-72 -149 -76 -160 l-6 -21 623 0 c573 0 626 1 658 18 30 15 45 37 112 172 42
85 77 163 77 173 1 9 -8 26 -19 37 -20 20 -33 20 -607 20 -471 -1 -594 -3
-619 -14z"/>
<path d="M16590 8352 c-38 -18 -70 -73 -176 -300 l-53 -112 653 2 654 3 27 25
c26 24 175 319 175 347 0 7 -9 22 -20 33 -20 20 -33 20 -622 20 -554 0 -606
-1 -638 -18z"/>
</g>
</svg>
