<?xml version="1.0" encoding="utf-8"?>
<!-- Generator: Adobe Illustrator 21.1.0, SVG Export Plug-In . SVG Version: 6.00 Build 0)  -->
<svg version="1.1" id="Layer_1" xmlns="http://www.w3.org/2000/svg" xmlns:xlink="http://www.w3.org/1999/xlink" x="0px" y="0px"
	 viewBox="0 0 92 23" style="enable-background:new 0 0 92 23;" xml:space="preserve">
<style type="text/css">
	.st0{fill:#C8102E;}
</style>
<path fill="#C8102E" class="st0" d="M86.4,3.2c-1.3-0.4-2.4-0.3-4.1-1c0,0-1.1-0.9,1.2-1c2.3-0.1,5.2-0.4,8.4-0.5c-3.8-0.4-7.2-0.3-11.3-0.2
	c-4.1,0.1-3.8,0.9-2.4,1.5c1.2,0.5,2.6,0.8,4.8,1.4c2.2,0.7,0.9,0.9-0.3,0.9c-1.2,0.1-13.3-1.7-19.9,0.5C56.2,7,55.2,5.2,47.5,5.2
	c-0.4,0-2.5,0-2.9,0C36.8,5.2,35.8,7,29.1,4.8C22.5,2.7,10.5,4.4,9.3,4.3c-1.2-0.1-2.5-0.3-0.3-1c2.2-0.7,3.6-0.9,4.8-1.4
	c1.4-0.6,1.7-1.4-2.4-1.5C7.3,0.4,3.8,0.3,0.1,0.7c3.2,0.1,6.1,0.4,8.4,0.5c2.3,0.1,1.2,1,1.2,1C8,2.9,6.9,2.9,5.6,3.2
	C4.2,3.6,1,4.3,4.6,5.4c3.3,0.9,5.1,0.8,7.9,1c-1.5,0.4-1,0.1-4.7,1.2c-4.6,1.4,3.7,2.4,9,3c-1.9,0.5-1.7,0.3-4.5,1
	c-4.8,1.3-1.2,1.7,2.9,2.6c3.1,0.7,8,1.4,10.5,2.7c7.4,4,14.1,5.6,20.7,5.6c6.6,0,13-1.7,20.2-5.6c2.4-1.3,7.4-2.1,10.5-2.7
	c4.1-1,7.7-1.3,2.9-2.6c-2.8-0.8-2.6-0.5-4.5-1c5.3-0.6,13.6-1.6,9-3c-3.8-1.1-3.3-0.8-4.7-1.2c2.8-0.2,4.6-0.1,7.9-1
	C91,4.3,87.8,3.6,86.4,3.2z M14.7,8.3c0,0-3.9-0.4-1.3-1.3c2.9-1,18.3,0.5,15.9,2.3C26.1,8.2,18.2,8.8,14.7,8.3z M25.8,12.7
	c0,0-12.8,0.2-9.4-1.3C19.2,10.1,27.2,11.8,25.8,12.7z M61.9,17.6c-3.9,2.5-11.5,3.5-15.9,3.6c-4.5-0.1-12-1.2-15.9-3.6
	c-2.5-1.6-4-4-2-6.1c3.1-3.3,10.7-5.1,17.6-5h0.5c6.9-0.1,14.5,1.7,17.6,5C65.9,13.6,64.4,16,61.9,17.6z M75.6,11.4
	c3.4,1.5-9.4,1.3-9.4,1.3C64.8,11.8,72.8,10.1,75.6,11.4z M77.3,8.3c-3.5,0.5-11.5-0.1-14.6,1c-2.4-1.8,13-3.3,16-2.3
	C81.2,7.9,77.3,8.3,77.3,8.3z M55.1,14.4c-1,0.2-1.4,0.3-2.1,0.6c-4.4,1.8-12.6,1.4-14.5,0.3C37,14.5,37,12.5,38,11.9
	c2.1-1.3,10.2-0.9,14.8,0.2c1.2,0.3,1.3,0.5,2.3,0.7c1.4,0.4,7.2,0.5,6.9,0c-3.6-5.2-19.2-4.8-23.1-4c-3.9,0.8-5.7,1.2-7.1,2.2
	c-3.7,2.4-1.9,4.6,0.3,5.8c5.3,2.8,19.5,3.6,27.7-0.2c1-0.5,2.6-2,2.3-2.3C61.8,14,58.3,13.9,55.1,14.4z"/>
</svg>
