<svg xmlns="http://www.w3.org/2000/svg" width="27" height="25" viewBox="0 0 27 25">
    <path fill="#C8102E" fill-rule="evenodd" d="M16.98 4.446c-.01 0-.02-.003-.031-.003h-.102H2.795l2.991-3.028a.833.833 0 0 0 0-1.172.811.811 0 0 0-1.157 0L.24 4.685a.833.833 0 0 0 0 1.174l4.388 4.442a.811.811 0 0 0 1.157 0 .835.835 0 0 0 0-1.172l-2.99-3.028h14.06c4.691.005 8.506 3.87 8.506 8.62 0 4.754-3.82 8.621-8.515 8.621s-8.515-3.867-8.515-8.62a.824.824 0 0 0-.819-.83.824.824 0 0 0-.819.83C6.694 20.389 11.25 25 16.847 25 22.445 25 27 20.389 27 14.722c0-5.623-4.483-10.203-10.02-10.276"/>
</svg>
