<?xml version="1.0" encoding="UTF-8"?>
<svg width="423px" height="490px" viewBox="0 0 423 490" version="1.1" xmlns="http://www.w3.org/2000/svg" xmlns:xlink="http://www.w3.org/1999/xlink">
    <!-- Generator: Sketch 50 (54983) - http://www.bohemiancoding.com/sketch -->
    <title>Skate-icon-tile-hover</title>
    <desc>Created with Sketch.</desc>
    <defs>
        <polyline id="path-1" points="2.17564174 4.33793132 6.46135603 8.60231357 2.17564174 12.8379313"></polyline>
        <polyline id="path-2" points="2.17564174 4.33793132 6.46135603 8.60231357 2.17564174 12.8379313"></polyline>
        <polyline id="path-3" points="2.17564174 4.33793132 6.46135603 8.60231357 2.17564174 12.8379313"></polyline>
    </defs>
    <g id="Skate-icon-tile-hover" stroke="none" stroke-width="1" fill="none" fill-rule="evenodd">
        <rect id="Rectangle-5" fill="#009CDA" x="0" y="0" width="423" height="490" rx="4"></rect>
        <polygon id="Path-4" fill="#006FAB" opacity="0.15" points="327.421268 177 423 339.449387 423 490 228.302148 489.902421 104 253.69508 170.859375 205.882812"></polygon>
        <path d="M105.383141,253.589492 L105,241.4713 L121.944984,202.06008 L116.035054,187.000978 L116.444518,165.716221 L124.887275,134.086336 L127.338209,110.639662 L123.346911,100.961395 L128.682616,78.8132401 L129.928556,28.040959 L139.861957,30.1500742 L148.768774,40.6829392 L151.403967,57.6272408 L148.767799,70.4462029 L143.414545,80.9213776 L172.659046,81.3418317 L176.422215,58.7409553 L180.895122,44.3751132 L187.553786,32.0910079 L194.385984,27.5393474 L210.712873,25 L219.276519,26.0022453 C222.10442,28.9486836 221.759626,32.0545033 218.242135,35.3197045 C214.397723,63.8897259 212.610706,77.9697244 212.881082,77.5597001 L215.156532,84.9812045 L214.760717,105.207004 L214.607655,113.714844 L218.711069,131.366096 L237.351429,149.858255 L285.024734,165.914714 L288.910742,169.958896 C308.204944,171.333032 320.405784,173.043733 325.513261,175.091 C330.620739,177.138268 332.278883,188.745251 330.487694,209.911948 L327.626786,211.570787 L325.513261,213.311786 L322.062827,217.597772 C324.782768,225.348149 327.021344,229.797802 328.778555,230.946731 C330.535766,232.09566 331.609581,235.997257 332,242.651522 L330.487694,253.589492 C330.487694,256.649607 323.89182,259.854804 310.700071,263.205085 C297.508323,266.555366 266.117911,268.149977 216.528837,267.988919 C180.842191,267.988919 154.251142,266.974314 136.755688,264.945106 C119.260235,262.915897 108.802719,259.130692 105.383141,253.589492 Z M182.535902,210.553254 L174.184787,222.433528 C172.079622,224.885851 174.863327,227.538623 182.535902,230.391844 C194.044764,234.671676 219.978457,237.812371 226.119442,237.647123 C232.260427,237.481874 249.195661,236.778836 250.656083,233.204976 C251.629697,230.822402 251.629697,229.001738 250.656083,227.742983 L247.613376,224.103303 L236.850323,222.433528 L226.119442,218.529171 C213.887518,214.765292 204.910508,212.459965 199.188412,211.613189 C193.466315,210.766414 187.915479,210.413103 182.535902,210.553254 Z" id="Combined-Shape" fill="#006FAB"></path>
        <text id="SKATES" font-family="AkzidenzGroteskBQ-BdCndIt, Akzidenz-Grotesk BQ" font-size="28" font-style="italic" font-weight="bold" fill="#FFFFFF">
            <tspan x="175.044" y="339">SKATES</tspan>
        </text>
        <g id="Page-1" transform="translate(104.000000, 25.000000)">
            <path d="M0.260586543,216.685309 C35.1699787,240.014772 200.679993,235.504469 226.806359,216.987932" id="Stroke-1" stroke="#FFFFFF" stroke-width="0.825" stroke-linecap="round" stroke-linejoin="round"></path>
            <path d="M112.113102,95.8697654 C112.679134,97.6390294 112.858995,98.5685532 113.065835,99.4452632 C114.340201,104.832276 116.790011,108.259895 119.239292,111.492103 C121.449993,114.41799 123.672331,117.174874 126.607765,119.820848 C130.062679,122.926302 134.511589,125.868034 138.897018,127.816865 C143.753259,129.97167 148.524331,130.906475 154.205816,132.416952 C157.929993,133.404571 162.04087,134.640415 165.933798,135.717817 C169.626763,136.742406 173.117649,137.624397 176.386884,138.353229" id="Stroke-3" stroke="#FFFFFF" stroke-width="0.825" stroke-linecap="round" stroke-linejoin="round"></path>
            <path d="M19.8657299,111.317817 C19.643549,112.569506 14.3905559,135.686129 14.1048947,136.673748 C13.9303239,137.270545 13.729303,137.803965 13.6557717,138.242319 C13.6076325,138.501107 13.6076325,138.722926 13.6182125,139.003367 C13.9028158,145.858077 15.7522079,154.183653 20.6952056,159.15238 C24.664839,163.142467 29.7787044,166.109021 34.7835954,168.599722 C40.1323378,171.256259 46.8718274,174.298337 52.6003935,176.67496" id="Stroke-5" stroke="#FFFFFF" stroke-width="0.825" stroke-linecap="round" stroke-linejoin="round"></path>
            <path d="M13.6184241,138.353176 L11.761097,142.623176 C11.5690691,143.065756 11.4653847,143.541081 11.4553336,144.022743 L11.1379323,160.179029 C11.07022,160.774769 11.0564659,161.378959 11.1374032,161.974171 C12.0541643,168.753886 22.0935703,172.174111 27.6962339,173.585297 C37.0035007,175.929704 44.0556306,176.25134 53.6506747,176.80747 C63.4329856,177.374163 73.2041875,178.01057 82.9494682,179.052059 C98.3799369,180.019081 113.19835,184.03663 127.787705,188.927721 C129.469932,189.487548 130.91358,189.968154 132.691556,190.470414 C136.124781,191.431098 140.811213,192.466249 144.219046,192.872916 C157.071157,194.417193 170.099426,193.618119 182.971111,192.734544 C191.007185,192.183167 199.183445,191.908535 207.169793,190.818457 C207.486665,190.776206 207.825756,190.728674 207.704085,189.746864 C206.736011,186.778197 191.273273,161.596552 190.077728,161.470327 C189.590517,161.416985 188.908633,161.284951 188.288113,161.226855 C160.603835,158.627358 133.646935,154.449782 107.963872,143.297081 C102.612484,140.973799 95.6402339,138.314622 90.64751,135.338561 C85.4765123,132.256345 83.7868789,131.376994 78.9142385,127.433912 C75.6682803,124.807479 73.6051712,120.520578 73.2581457,116.704777 L68.6664056,75.0768987" id="Stroke-7" stroke="#FFFFFF" stroke-width="0.825" stroke-linecap="round" stroke-linejoin="round"></path>
            <path d="M27.0072613,69.7269082 C26.4153077,61.4092545 27.5997439,57.9235403 29.9908343,52.7324667 C35.4459063,40.8879039 42.4160408,25.5322762 36.4552427,12.5453498 C34.9534051,9.29201645 32.3131545,5.88024156 30.1072148,4.44370476 C28.9434097,3.68846667 27.9012752,3.47721126 25.2245234,3.18198182 C26.2502589,3.29500346 25.5038367,30.0029688 25.4091452,32.5258866 C25.120839,40.2224494 24.6124677,47.9200684 23.5613401,55.5537827 C22.5721058,62.7438606 20.0164956,69.6387091 19.2732473,76.8567784 C19.8657299,78.04509 21.0887833,82.2701983 22.9191313,85.3809342" id="Stroke-9" stroke="#FFFFFF" stroke-width="0.825" stroke-linecap="round" stroke-linejoin="round"></path>
            <path d="M38.0212483,81.3142147 L68.6663527,75.0768987 L88.7155406,57.8437385 C77.5271415,56.4547342 65.8044501,57.0515307 53.3517355,56.1378511 C49.6275592,55.863219 45.8451926,55.4565524 42.3960974,55.6149939 C40.2218979,55.7153403 38.179949,56.0427861 36.4501114,56.6554268 C34.074891,57.4951671 32.2921531,58.87889 30.8479768,60.9544745 C30.0915035,62.0318771 29.4355406,63.3046909 28.8959582,64.4349074 C28.1341949,66.0298857 27.6051926,67.350232 27.00742,69.7273835 C25.1125336,76.381929 23.2858886,83.0676346 21.9861299,89.8674182 C20.7207564,96.4934442 20.2896195,103.18179 19.6754478,109.886509 C19.6278376,110.377678 19.5802274,110.863565 19.8658886,111.317765 L38.0212483,81.3142147" id="Stroke-11" stroke="#FFFFFF" stroke-width="0.825" stroke-linecap="round" stroke-linejoin="round"></path>
            <path d="M39.1954747,55.9532667 C40.4603193,53.7139593 40.9681615,52.874219 41.4283935,52.0503229 C45.5223425,44.7936996 46.3052659,38.8204528 46.7337578,34.4052147 C47.0828993,30.8297169 47.2050988,28.2735264 46.8448483,25.3423576 C46.326426,21.0697169 44.7870292,16.0048684 41.6130153,11.6213186 C38.1057299,6.77828831 32.5935258,2.76971688 25.2245234,3.18166494" id="Stroke-13" stroke="#FFFFFF" stroke-width="0.825" stroke-linecap="round" stroke-linejoin="round"></path>
            <path d="M81.8969123,63.7048615 C81.9968937,65.4424372 82.0233439,68.4486017 82.0397429,69.1774329 C82.1503044,73.8408961 81.9868427,79.3969134 82.4148056,84.7738918 C83.3569587,96.54029 87.1710654,107.435788 93.1535527,116.108351 C100.554824,126.834844 111.282991,134.154316 122.693042,140.149216 C127.391112,142.610342 132.199743,144.849121 137.886518,146.78739 C144.710119,149.111199 152.798564,151.007216 160.543687,152.386186 C165.864922,153.336307 171.017933,154.044013 176.244476,154.841502 C180.026843,155.422983 183.840949,156.045658 187.020253,155.82384" id="Stroke-15" stroke="#FFFFFF" stroke-width="0.825" stroke-linecap="round" stroke-linejoin="round"></path>
            <path d="M188.289436,161.227172 C187.993194,159.742575 187.792703,159.019025 187.580573,158.179285 C186.93519,155.628376 186.200406,152.032281 185.549204,149.370462 C185.232331,148.081276 184.930271,147.009683 184.549918,145.836687 C184.153167,144.606125 183.660665,143.264653 182.581501,142.19306 C180.460201,140.101631 176.085881,139.077042 172.107255,138.395744 C167.865185,137.671666 164.077,137.334185 160.549083,136.615389 C156.787348,135.855397 153.317621,134.667086 149.725696,133.515216 C138.912359,130.034783 127.004517,126.861198 119.254633,120.23306" id="Stroke-17" stroke="#FFFFFF" stroke-width="0.825" stroke-linecap="round" stroke-linejoin="round"></path>
            <path d="M88.0987768,58.3737255 C89.3371712,58.2575351 90.5406515,58.3985481 91.2653847,58.4619247 C93.7146654,58.6937775 95.9893754,60.1889377 97.3118812,62.2117082 C99.6130413,65.7185481 99.0575889,70.8203662 98.9464984,75.4151714 C98.8142478,80.960626 99.3168,85.771968 100.210814,91.1167299 C100.803297,94.0901498 102.474944,98.5370762 104.506313,102.63015 C106.035129,105.703916 107.770257,108.57699 109.489515,110.668418 C110.589839,111.999327 111.679584,113.013353 112.94919,114.249197 C114.858888,116.102964 117.170628,118.447899 119.254897,120.233007" id="Stroke-19" stroke="#FFFFFF" stroke-width="0.825" stroke-linecap="round" stroke-linejoin="round"></path>
            <path d="M184.131795,144.659361 C185.490802,144.706894 213.639544,147.595811 219.971702,149.639707 C224.468222,151.129058 225.600287,155.671049 226.457271,160.545768 C227.837967,168.409751 228.488639,177.145162 226.32502,184.850703 C225.393976,186.456244 225.028964,186.656937 224.632213,186.847067 C220.585345,188.769491 214.109298,189.667326 207.729001,190.713041" id="Stroke-21" stroke="#FFFFFF" stroke-width="0.825" stroke-linecap="round" stroke-linejoin="round"></path>
            <path d="M187.554281,158.084642 C189.570309,158.035526 208.252555,159.332634 216.577465,159.920452 C219.006643,160.092097 221.120536,161.635846 222.023014,163.894166 L227.461158,178.81672" id="Stroke-23" stroke="#FFFFFF" stroke-width="0.825" stroke-linecap="round" stroke-linejoin="round"></path>
            <path d="M0.260586543,216.685309 C0.852540139,214.604443 17.683807,176.675119 17.683807,176.675119" id="Stroke-25" stroke="#FFFFFF" stroke-width="0.825" stroke-linecap="round" stroke-linejoin="round"></path>
            <path d="M221.024523,188.373176 C221.018703,189.154821 221.039864,189.434734 220.982202,189.678206 C220.748912,190.623046 219.257126,190.961055 218.670462,191.700448 C218.24726,192.234397 218.283761,192.973262 218.390091,193.696812 C218.961413,197.673695 221.405404,201.297254 223.843576,205.046509 C226.251065,208.738726 228.652736,212.556639 226.96998,216.892656" id="Stroke-27" stroke="#FFFFFF" stroke-width="0.825" stroke-linecap="round" stroke-linejoin="round"></path>
            <path d="M68.6238209,56.7506502 C68.5661596,54.2789619 68.9994125,48.9500442 69.7299647,44.0383558 C70.4224288,39.3854554 71.379923,35.1180961 72.5490181,31.0567108 C74.4587165,24.3916026 76.9191063,18.2916026 80.1084613,12.5929879 C81.9335193,9.34493593 83.9918673,6.22363723 87.355793,4.23783636 C91.5454914,1.77142944 97.7670877,1.07428658 101.855747,0.598961905 C104.305027,0.319048485 105.987784,0.118355844 109.044888,0.229264935 C111.484118,0.319048485 114.790382,0.609524675 116.117649,1.96155931 C118.143728,4.01601818 115.583886,8.5316026 114.393631,10.3114294 C103.035951,9.96813939 93.4340297,13.1897844 88.5571573,20.3830312 C86.8532408,22.8916892 85.7264659,25.8809532 84.7954218,29.345542 C82.7746329,36.8398277 81.6589671,46.5575766 81.0765355,57.1678797 L68.6238209,56.7506502 Z" id="Stroke-29" stroke="#FFFFFF" stroke-width="0.825" stroke-linecap="round" stroke-linejoin="round"></path>
            <path d="M110.878939,90.7675775 C110.783719,80.3738113 110.811756,78.6526078 110.806466,77.6438632 C110.780016,72.748019 110.806466,71.8871532 110.822865,69.5781316 C110.844554,66.3300797 110.807524,63.0762182 110.545668,59.8376727 C110.314494,56.9688242 110.166373,53.1825991 108.442884,50.7462961 C109.17661,51.7925385 105.905788,54.8430667 105.324944,55.4900364 C103.300981,57.7467723 102.25673,59.5936727 101.400805,62.5866338 C99.7661875,68.2852485 100.373482,82.3305645 105.737037,93.2424346" id="Stroke-31" stroke="#FFFFFF" stroke-width="0.825" stroke-linecap="round" stroke-linejoin="round"></path>
            <path d="M114.393366,10.3113238 L108.44209,50.7139212" id="Stroke-33" stroke="#FFFFFF" stroke-width="0.825" stroke-linecap="round" stroke-linejoin="round"></path>
            <path d="M131.232092,135.634107 C131.232092,133.674185 132.823331,132.085545 134.786458,132.085545 C136.749057,132.085545 138.340296,133.674185 138.340296,135.634107 C138.340296,137.593501 136.749057,139.18267 134.786458,139.18267 C132.823331,139.18267 131.232092,137.593501 131.232092,135.634107 Z" id="Stroke-35" stroke="#FFFFFF" stroke-width="0.825" stroke-linecap="round" stroke-linejoin="round"></path>
            <path d="M119.267012,129.87613 C119.267012,127.916208 120.85878,126.327567 122.821378,126.327567 C124.784506,126.327567 126.375745,127.916208 126.375745,129.87613 C126.375745,131.835524 124.784506,133.424165 122.821378,133.424165 C120.85878,133.424165 119.267012,131.835524 119.267012,129.87613 Z" id="Stroke-37" stroke="#FFFFFF" stroke-width="0.825" stroke-linecap="round" stroke-linejoin="round"></path>
            <path d="M77.9784863,184.312583 L70.0228204,196.443925 C68.4231174,198.523206 69.2769271,201.285899 71.9081847,202.615752 C77.1416046,205.260141 85.7093262,209.036332 105.641605,211.55344 C125.150152,213.236617 137.945131,211.843388 143.447813,210.331327 C146.380602,209.525388 147.768704,206.854063 146.536658,204.505959 L143.145753,198.043656" id="Stroke-39" stroke="#FFFFFF" stroke-width="0.825"></path>
            <path d="M92.9429568,100.852013 C92.9429568,98.892619 94.5341958,97.3039784 96.4967944,97.3039784 C98.459922,97.3039784 100.051161,98.892619 100.051161,100.852013 C100.051161,102.811407 98.459922,104.400048 96.4967944,104.400048 C94.5341958,104.400048 92.9429568,102.811407 92.9429568,100.852013 Z" id="Stroke-41" stroke="#FFFFFF" stroke-width="0.825" stroke-linecap="round" stroke-linejoin="round"></path>
            <path d="M226.949454,216.745675 L226.949454,227.855069 C226.949454,237.531623 199.707951,239.502108 194.001603,240.186576 C167.35364,243.381814 140.316331,243.7119 113.512842,243.7119 C85.063626,243.7119 56.1954404,243.512264 27.9673476,239.522706 C19.1589299,238.277883 6.05236845,237.452931 0.926864965,229.194957 C0.454465893,228.433909 0.19842877,227.557199 0.19842877,226.661476 L0.19842877,216.745675" id="Stroke-43" stroke="#FFFFFF" stroke-width="0.825" stroke-linecap="round" stroke-linejoin="round"></path>
            <path d="M126.919982,195.331295 C130.353207,196.291979 135.040697,197.327659 138.447472,197.734326" id="Stroke-45" stroke="#FFFFFF" stroke-width="0.825" stroke-linecap="round" stroke-linejoin="round"></path>
            <path d="M13.6127638,166.756096 C14.2163555,171.215698 15.7906664,175.841135 20.1665735,177.864434 C25.5962534,180.374676 32.8393531,180.763386 38.7123369,181.48007 C52.5462766,183.167473 66.5077058,183.265706 80.3770886,184.539048 C88.2920213,185.266295 96.188968,186.379083 103.896003,188.354849 C111.671808,190.348044 119.270926,192.912157 126.919771,195.331031" id="Stroke-47" stroke="#FFFFFF" stroke-width="0.825" stroke-linecap="round" stroke-linejoin="round"></path>
            <path d="M218.86048,191.708054 C216.210707,192.967136 213.264693,193.591396 210.400675,194.144885 C206.874874,194.826184 203.306225,195.457309 199.741278,195.894608 C196.16099,196.333491 192.564303,196.623439 188.96603,196.863214 C185.367227,197.103517 181.76525,197.293119 178.166447,197.530253 L177.199431,197.595214 C164.327747,198.47879 151.299477,199.278391 138.447366,197.734114" id="Stroke-49" stroke="#FFFFFF" stroke-width="0.825" stroke-linecap="round" stroke-linejoin="round"></path>
            <path d="M145.036778,225.714735 C156.821891,224.994882 166.814216,223.868363 174.980425,222.572311 C175.46552,222.495203 175.589836,221.855627 175.170866,221.600008 L164.728889,215.230657 C164.509882,215.097038 164.253845,215.047921 164.000982,215.092285 C160.256174,215.747705 155.898253,216.355592 150.935683,216.859436 C150.639441,216.890068 150.365947,217.043229 150.188731,217.281947 L144.573901,224.872354 C144.307284,225.233601 144.588184,225.742198 145.036778,225.714735 Z" id="Stroke-51" stroke="#FFFFFF" stroke-width="0.825"></path>
            <path d="M111.182692,226.527065 C119.295472,226.601004 127.020493,226.493264 134.063101,226.242398 C134.375212,226.231307 134.662989,226.083429 134.855546,225.838372 L140.51111,218.643541 C140.792539,218.285991 140.520103,217.766303 140.06569,217.790597 C133.47485,218.143922 125.226646,218.32032 117.256697,218.245853 C116.932948,218.242684 116.627184,218.387394 116.424576,218.639316 L110.771658,225.666727 C110.49446,226.010545 110.740446,226.523368 111.182692,226.527065 Z" id="Stroke-53" stroke="#FFFFFF" stroke-width="0.825"></path>
            <path d="M102.450504,225.955566 L108.328249,218.703168 C108.596982,218.371497 108.379562,217.876103 107.953715,217.844943 C99.7843323,217.244449 92.0799425,216.455939 86.0350329,215.55335 C85.6880074,215.501592 85.3420399,215.62412 85.1045179,215.881852 L78.1968056,223.368216 C77.9000353,223.689852 78.1015852,224.212181 78.5380121,224.251791 L101.532156,226.34322 C101.883942,226.375436 102.228323,226.230198 102.450504,225.955566 Z" id="Stroke-55" stroke="#FFFFFF" stroke-width="0.825"></path>
            <path d="M40.8279759,217.985005 C47.7557903,219.690893 58.2210432,221.341854 68.1646998,222.783144 C68.8270107,222.879265 69.4935536,222.65639 69.9659527,222.183178 L77.4465745,214.689421 C77.7433448,214.391551 77.5857021,213.885066 77.1736093,213.800035 C66.6337671,211.61407 59.5223889,208.777438 54.4651267,206.676503 C54.1080501,206.528096 53.6996603,206.586191 53.3976,206.828079 L40.625897,217.059706 C40.2841615,217.334339 40.4016,217.879906 40.8279759,217.985005 Z" id="Stroke-57" stroke="#FFFFFF" stroke-width="0.825"></path>
            <path d="M100.351581,111.84828 C100.351581,109.888886 101.943349,108.300245 103.905948,108.300245 C105.869076,108.300245 107.460315,109.888886 107.460315,111.84828 C107.460315,113.807674 105.869076,115.396842 103.905948,115.396842 C101.943349,115.396842 100.351581,113.807674 100.351581,111.84828 Z" id="Stroke-59" stroke="#FFFFFF" stroke-width="0.825" stroke-linecap="round" stroke-linejoin="round"></path>
            <path d="M108.702465,122.578153 C108.702465,120.618759 110.294233,119.030119 112.256832,119.030119 C114.219959,119.030119 115.811198,120.618759 115.811198,122.578153 C115.811198,124.538075 114.219959,126.126716 112.256832,126.126716 C110.294233,126.126716 108.702465,124.538075 108.702465,122.578153 Z" id="Stroke-61" stroke="#FFFFFF" stroke-width="0.825" stroke-linecap="round" stroke-linejoin="round"></path>
            <path d="M143.471989,140.06239 C143.471989,138.102468 145.063228,136.513828 147.026355,136.513828 C148.988954,136.513828 150.580193,138.102468 150.580193,140.06239 C150.580193,142.021784 148.988954,143.610425 147.026355,143.610425 C145.063228,143.610425 143.471989,142.021784 143.471989,140.06239 Z" id="Stroke-63" stroke="#FFFFFF" stroke-width="0.825" stroke-linecap="round" stroke-linejoin="round"></path>
            <path d="M156.655203,143.555129 C156.655203,141.595735 158.246442,140.007094 160.20904,140.007094 C162.172168,140.007094 163.763407,141.595735 163.763407,143.555129 C163.763407,145.515051 162.172168,147.103692 160.20904,147.103692 C158.246442,147.103692 156.655203,145.515051 156.655203,143.555129 Z" id="Stroke-65" stroke="#FFFFFF" stroke-width="0.825" stroke-linecap="round" stroke-linejoin="round"></path>
            <path d="M169.558416,146.077202 C169.558416,144.117808 171.149655,142.529167 173.112782,142.529167 C175.075381,142.529167 176.66662,144.117808 176.66662,146.077202 C176.66662,148.037124 175.075381,149.625765 173.112782,149.625765 C171.149655,149.625765 169.558416,148.037124 169.558416,146.077202 Z" id="Stroke-67" stroke="#FFFFFF" stroke-width="0.825" stroke-linecap="round" stroke-linejoin="round"></path>
            <path d="M96.4114135,102.869132 L94.8873578,99.1795567 C94.6588288,98.6265957 94.9529541,97.9690632 95.5602487,97.6754182 L110.879098,90.2075394 C111.546699,89.8843186 112.326977,90.1262061 112.578782,90.7346216 L114.276351,96.57689 C114.527627,97.1853056 114.144629,97.9062147 113.442643,98.1470459 L97.9502812,103.46276 C97.3123044,103.68141 96.6399425,103.422094 96.4114135,102.869132" id="Fill-69" fill="#006FAB"></path>
            <path d="M96.4114135,102.869132 L94.8873578,99.1795567 C94.6588288,98.6265957 94.9529541,97.9690632 95.5602487,97.6754182 L110.879098,90.2075394 C111.546699,89.8843186 112.326977,90.1262061 112.578782,90.7346216 L114.276351,96.57689 C114.527627,97.1853056 114.144629,97.9062147 113.442643,98.1470459 L97.9502812,103.46276 C97.3123044,103.68141 96.6399425,103.422094 96.4114135,102.869132 Z" id="Stroke-71" stroke="#FFFFFF" stroke-width="0.825" stroke-linecap="round" stroke-linejoin="round"></path>
            <path d="M104.151723,114.333964 L101.800836,111.105981 C101.448521,110.622734 101.535806,109.946189 102.00027,109.559063 L113.277542,100.156085 C113.789087,99.7298771 114.551379,99.8201887 114.939667,100.352024 L117.81162,105.462293 C118.199379,105.994128 118.049671,106.746726 117.486284,107.100578 L105.687416,114.621799 C105.175342,114.943435 104.504038,114.817739 104.151723,114.333964" id="Fill-73" fill="#006FAB"></path>
            <path d="M104.151723,114.333964 L101.800836,111.105981 C101.448521,110.622734 101.535806,109.946189 102.00027,109.559063 L113.277542,100.156085 C113.789087,99.7298771 114.551379,99.8201887 114.939667,100.352024 L117.81162,105.462293 C118.199379,105.994128 118.049671,106.746726 117.486284,107.100578 L105.687416,114.621799 C105.175342,114.943435 104.504038,114.817739 104.151723,114.333964 Z" id="Stroke-75" stroke="#FFFFFF" stroke-width="0.825" stroke-linecap="round" stroke-linejoin="round"></path>
            <path d="M112.951041,124.694299 L110.118234,121.955372 C109.693445,121.545009 109.651654,120.885892 110.021426,120.446481 L119.010234,109.785476 C119.418095,109.302229 120.159756,109.275294 120.627394,109.726853 L124.444146,114.265675 C124.911255,114.717762 124.90861,115.45874 124.437798,115.881251 L114.464517,124.741831 C114.037083,125.12526 113.375301,125.104662 112.951041,124.694299" id="Fill-77" fill="#006FAB"></path>
            <path d="M112.951041,124.694299 L110.118234,121.955372 C109.693445,121.545009 109.651654,120.885892 110.021426,120.446481 L119.010234,109.785476 C119.418095,109.302229 120.159756,109.275294 120.627394,109.726853 L124.444146,114.265675 C124.911255,114.717762 124.90861,115.45874 124.437798,115.881251 L114.464517,124.741831 C114.037083,125.12526 113.375301,125.104662 112.951041,124.694299 Z" id="Stroke-79" stroke="#FFFFFF" stroke-width="0.825" stroke-linecap="round" stroke-linejoin="round"></path>
            <path d="M123.324406,132.532297 L120.073158,130.30989 C119.586476,129.977163 119.418253,129.3566 119.689103,128.89131 L126.268304,117.583864 C126.566662,117.07157 127.274467,116.947985 127.810346,117.314513 L132.662355,121.4266 C133.198764,121.793128 133.338949,122.496609 132.968119,122.959258 L124.788156,132.377024 C124.451181,132.797423 123.811618,132.865552 123.324406,132.532297" id="Fill-81" fill="#006FAB"></path>
            <path d="M123.324406,132.532297 L120.073158,130.30989 C119.586476,129.977163 119.418253,129.3566 119.689103,128.89131 L126.268304,117.583864 C126.566662,117.07157 127.274467,116.947985 127.810346,117.314513 L132.662355,121.4266 C133.198764,121.793128 133.338949,122.496609 132.968119,122.959258 L124.788156,132.377024 C124.451181,132.797423 123.811618,132.865552 123.324406,132.532297 Z" id="Stroke-83" stroke="#FFFFFF" stroke-width="0.825" stroke-linecap="round" stroke-linejoin="round"></path>
            <path d="M135.964705,138.236616 L132.365903,136.6353 C131.826849,136.395525 131.531137,135.856823 131.690367,135.403152 L135.250552,124.9233 C135.425123,124.424209 136.077383,124.224572 136.670923,124.488642 L142.336009,126.881109 C142.92955,127.145706 143.216798,127.762572 142.961819,128.226278 L137.334821,137.914979 C137.102589,138.335377 136.504288,138.47639 135.964705,138.236616" id="Fill-85" fill="#006FAB"></path>
            <path d="M135.964705,138.236616 L132.365903,136.6353 C131.826849,136.395525 131.531137,135.856823 131.690367,135.403152 L135.250552,124.9233 C135.425123,124.424209 136.077383,124.224572 136.670923,124.488642 L142.336009,126.881109 C142.92955,127.145706 143.216798,127.762572 142.961819,128.226278 L137.334821,137.914979 C137.102589,138.335377 136.504288,138.47639 135.964705,138.236616 Z" id="Stroke-87" stroke="#FFFFFF" stroke-width="0.825" stroke-linecap="round" stroke-linejoin="round"></path>
            <path d="M148.475293,142.212601 L144.66436,141.213891 C144.093567,141.064428 143.714272,140.581181 143.797325,140.107969 L145.814411,129.123744 C145.905929,128.602471 146.516397,128.300376 147.144852,128.465155 L152.832685,129.954506 C153.461669,130.119285 153.844666,130.681752 153.66798,131.180315 L149.774523,141.673371 C149.614235,142.126514 149.046615,142.362064 148.475293,142.212601" id="Fill-89" fill="#006FAB"></path>
            <path d="M148.475293,142.212601 L144.66436,141.213891 C144.093567,141.064428 143.714272,140.581181 143.797325,140.107969 L145.814411,129.123744 C145.905929,128.602471 146.516397,128.300376 147.144852,128.465155 L152.832685,129.954506 C153.461669,130.119285 153.844666,130.681752 153.66798,131.180315 L149.774523,141.673371 C149.614235,142.126514 149.046615,142.362064 148.475293,142.212601 Z" id="Stroke-91" stroke="#FFFFFF" stroke-width="0.825" stroke-linecap="round" stroke-linejoin="round"></path>
            <path d="M161.700351,145.480986 L157.889418,144.482804 C157.318625,144.333341 156.93933,143.849566 157.022383,143.376882 L158.771794,132.747566 C158.863311,132.226294 159.47378,131.924198 160.102235,132.088977 L165.790068,133.578328 C166.418523,133.743107 166.802578,134.306103 166.625891,134.804138 L162.999581,144.941757 C162.839293,145.3949 162.271673,145.630449 161.700351,145.480986" id="Fill-93" fill="#006FAB"></path>
            <path d="M161.700351,145.480986 L157.889418,144.482804 C157.318625,144.333341 156.93933,143.849566 157.022383,143.376882 L158.771794,132.747566 C158.863311,132.226294 159.47378,131.924198 160.102235,132.088977 L165.790068,133.578328 C166.418523,133.743107 166.802578,134.306103 166.625891,134.804138 L162.999581,144.941757 C162.839293,145.3949 162.271673,145.630449 161.700351,145.480986 Z" id="Stroke-95" stroke="#FFFFFF" stroke-width="0.825" stroke-linecap="round" stroke-linejoin="round"></path>
            <path d="M174.749251,147.85761 L170.938318,146.859428 C170.366996,146.709965 169.98823,146.22619 170.071284,145.753506 L171.798476,136.296129 C171.889994,135.775384 172.500462,135.473289 173.128917,135.63754 L178.81675,137.127419 C179.445205,137.29167 179.82926,137.854666 179.652574,138.353229 L176.048481,147.31838 C175.888193,147.771523 175.320045,148.007073 174.749251,147.85761" id="Fill-97" fill="#006FAB"></path>
            <path d="M174.749251,147.85761 L170.938318,146.859428 C170.366996,146.709965 169.98823,146.22619 170.071284,145.753506 L171.798476,136.296129 C171.889994,135.775384 172.500462,135.473289 173.128917,135.63754 L178.81675,137.127419 C179.445205,137.29167 179.82926,137.854666 179.652574,138.353229 L176.048481,147.31838 C175.888193,147.771523 175.320045,148.007073 174.749251,147.85761 Z" id="Stroke-99" stroke="#FFFFFF" stroke-width="0.825" stroke-linecap="round" stroke-linejoin="round"></path>
        </g>
        <text id="PLAYER" font-family="AkzidenzGroteskBQ-Cnd, Akzidenz-Grotesk BQ" font-size="21" font-style="condensed" font-weight="normal" line-spacing="30" letter-spacing="0.5" fill="#FFFFFF">
            <tspan x="44.342" y="425">PLAYER</tspan>
        </text>
        <text id="GOALIE" font-family="AkzidenzGroteskBQ-Cnd, Akzidenz-Grotesk BQ" font-size="21" font-style="condensed" font-weight="normal" line-spacing="30" letter-spacing="0.5" fill="#FFFFFF">
            <tspan x="187.3265" y="425">GOALIE</tspan>
        </text>
        <text id="STREET" font-family="AkzidenzGroteskBQ-Cnd, Akzidenz-Grotesk BQ" font-size="21" font-style="condensed" font-weight="normal" line-spacing="30" letter-spacing="0.5" fill="#FFFFFF">
            <tspan x="326.5625" y="425">STREET</tspan>
        </text>
        <g id="Group-5-Copy" transform="translate(392.500000, 417.500000) rotate(-90.000000) translate(-392.500000, -417.500000) translate(388.000000, 412.000000)" stroke="#FFFFFF" stroke-width="0.72">
            <g id="Group-7">
                <path d="M4.28571429,0.497680372 L4.28571429,10.3966273" id="Line-12" stroke-linecap="square"></path>
                <g id="Path-2" stroke-linecap="round" stroke-linejoin="round" transform="translate(4.318499, 8.587931) rotate(-270.000000) translate(-4.318499, -8.587931) ">
                    <use xlink:href="#path-1"></use>
                    <use xlink:href="#path-1"></use>
                </g>
            </g>
        </g>
        <g id="Group-5-Copy-2" transform="translate(248.500000, 417.500000) rotate(-90.000000) translate(-248.500000, -417.500000) translate(244.000000, 412.000000)" stroke="#FFFFFF" stroke-width="0.72">
            <g id="Group-7">
                <path d="M4.28571429,0.497680372 L4.28571429,10.3966273" id="Line-12" stroke-linecap="square"></path>
                <g id="Path-2" stroke-linecap="round" stroke-linejoin="round" transform="translate(4.318499, 8.587931) rotate(-270.000000) translate(-4.318499, -8.587931) ">
                    <use xlink:href="#path-2"></use>
                    <use xlink:href="#path-2"></use>
                </g>
            </g>
        </g>
        <g id="Group-5-Copy-2" transform="translate(108.500000, 417.500000) rotate(-90.000000) translate(-108.500000, -417.500000) translate(104.000000, 412.000000)" stroke="#FFFFFF" stroke-width="0.72">
            <g id="Group-7">
                <path d="M4.28571429,0.497680372 L4.28571429,10.3966273" id="Line-12" stroke-linecap="square"></path>
                <g id="Path-2" stroke-linecap="round" stroke-linejoin="round" transform="translate(4.318499, 8.587931) rotate(-270.000000) translate(-4.318499, -8.587931) ">
                    <use xlink:href="#path-3"></use>
                    <use xlink:href="#path-3"></use>
                </g>
            </g>
        </g>
    </g>
</svg>