<svg xmlns="http://www.w3.org/2000/svg" xmlns:xlink="http://www.w3.org/1999/xlink" width="199" height="35" viewBox="0 0 199 35">
    <defs>
        <path id="a" d="M0 23.793V.004h159.932v23.789z"/>
    </defs>
    <g fill="none" fill-rule="evenodd">
        <path fill="#D91A31" d="M181.5 0C171.85 0 164 7.85 164 17.501 164 27.15 171.85 35 181.5 35S199 27.15 199 17.501C199 7.851 191.15 0 181.5 0"/>
        <path fill="#FEFEFE" d="M181 3c-7.72 0-14 6.28-14 14s6.28 14 14 14c7.719 0 14-6.28 14-14s-6.281-14-14-14zm-7.351 22.652l14.496-12.243c.162-.14.12-.253-.093-.253h-4.06c-.213 0-.52.114-.684.253l-11.717 9.899c-.204-.31-.392-.63-.566-.957l10.609-8.944c.164-.137.122-.25-.09-.25h-4.061c-.212 0-.521.113-.685.25l-6.876 5.8a11.386 11.386 0 0 1-.21-2.17c0-6.296 5.105-11.402 11.401-11.402a11.4 11.4 0 0 1 10.288 6.482l-16.845 14.246a11.362 11.362 0 0 1-.907-.71zm7.464 2.789c-1.228 0-2.41-.199-3.52-.558l11.055-9.35 3.767.002c-.735 5.59-5.513 9.906-11.302 9.906zm10.583-11.952l-1.413 1.027.54-1.661-1.413-1.027h1.747l.54-1.662.54 1.662h1.746l-1.414 1.027.54 1.66-1.413-1.026z"/>
        <g transform="translate(0 6)">
            <mask id="b" fill="#fff">
                <use xlink:href="#a"/>
            </mask>
            <path fill="#D91A31" d="M158.108 14.703l-2.262-1.558c.02-.16.05-8.903.05-8.903 0-2.33-1.865-4.22-4.167-4.22h-3.945c-2.3 0-4.167 1.89-4.167 4.22v1.42h-2.953v-1.42c0-2.33-1.865-4.22-4.166-4.22H69.47c-1.076 0-3.071.12-4.26 1.194 0 0-4.97 4.174-8.852 7.467V4.242c0-2.33-1.865-4.22-4.166-4.22L19.93.005c-.837 0-1.655.293-2.346.77l-3.551 2.45L10.459.756A4.157 4.157 0 0 0 8.112.004H4.167C1.867.004 0 1.894 0 4.225v13.926a4.22 4.22 0 0 0 2.788 3.984l3.945 1.4a4.124 4.124 0 0 0 3.788-.539 4.238 4.238 0 0 0 1.757-3.443v-4.158a4.05 4.05 0 0 0 3.483.012v4.146c0 1.364.652 2.646 1.749 3.437a4.12 4.12 0 0 0 3.78.552l3.781-1.324 3.712 1.318a4.123 4.123 0 0 0 3.789-.54 4.237 4.237 0 0 0 1.755-3.443v-2.668h3.485v2.668c0 1.366.652 2.646 1.75 3.437a4.115 4.115 0 0 0 3.777.55s3.367-1.128 3.367-1.149h9.526c.988 0 1.943-.354 2.695-1l6.377-5.48v2.26c0 2.33 1.862 4.218 4.16 4.22l21.253.022 3.156 1.142a4.12 4.12 0 0 0 3.789-.54 4.237 4.237 0 0 0 1.756-3.443V17.48l6.077 4.2a4.13 4.13 0 0 0 2.362.734l5.401-.02c.096 0 .186-.016.278-.024.144.017.828.025.977.025H131.7c.042.018 2.896 1.166 2.896 1.166 1.274.447 3.22.242 4.317-.55a4.239 4.239 0 0 0 1.75-3.438v-2.964l7.333 5.07a4.135 4.135 0 0 0 2.35.735h5.418c1.83 0 3.444-1.207 3.982-2.979a4.239 4.239 0 0 0-1.639-4.731" mask="url(#b)"/>
        </g>
        <path fill="#FEFEFE" d="M19.7 10.037l-5.876 3.978-5.895-3.996V10H4v13.612l3.929 1.37V13.249l5.895 3.978 5.875-3.96v11.715l3.93-1.35V10H19.7v.037zm32.136 10.875V10.018H47.89V23.63h7.971l11.807-9.953v-3.663L54.576 20.912h-2.74zm21.14-2.643h12.981l2.717-2.702v-.036H72.975v-2.793h15.699v-2.72H69.045V23.63l19.629.022v-2.72H72.975V18.27zm40.933-5.527h5.926v8.153h-5.926v2.74h15.752v-2.74h-5.914v-8.153h5.914l.002-2.737h-15.765l.011 2.737zm33.093 5.503l3.978-.001v-8.225h-3.93v5.512H135.81v-5.512h-3.928v13.63l3.928 1.35v-6.731h5.86l7.933 5.385H155l-7.998-5.408zm-121.04 5.367l3.93 1.37v-6.733h11.77v6.733l3.928-1.35V10H25.961v13.612zm3.93-8.1h11.77V12.72h-11.77v2.791zm80.55 2.738l-.017-8.232H90.796v5.553l-2.677 2.662v.037h2.677v5.361L94.726 25v-6.75h4.572l7.969 5.402 5.379-.018-7.894-5.384h5.69zM94.726 15.51h11.77V12.72h-11.77v2.791z"/>
    </g>
</svg>
