<?xml version="1.0" encoding="utf-8"?>
<!-- Generator: Adobe Illustrator 21.1.0, SVG Export Plug-In . SVG Version: 6.00 Build 0)  -->
<svg version="1.1" id="Layer_1" xmlns="http://www.w3.org/2000/svg" xmlns:xlink="http://www.w3.org/1999/xlink" x="0px" y="0px"
	 viewBox="0 0 600 600" style="enable-background:new 0 0 600 600;" xml:space="preserve">
<style type="text/css">
	.st0{fill:#C8202F;}
	.st1{fill:#FFFFFF;}
</style>
<path class="st0" d="M512.1,253.1c-25.9,0-46.9,21-46.9,46.9c0,25.9,21,46.9,46.9,46.9c25.9,0,46.9-21,46.9-46.9
	C559,274.1,537.9,253.1,512.1,253.1"/>
<path class="st1" d="M512.1,262c-21,0-38,17-38,38c0,21,17.1,38,38,38c21,0,38-17,38-38C550.1,279,533,262,512.1,262 M492.1,323.5
	l39.3-33.2c0.4-0.4,0.3-0.7-0.2-0.7h-11c-0.6,0-1.4,0.3-1.9,0.7l-31.8,26.9c-0.6-0.8-1.1-1.7-1.5-2.6l28.8-24.3
	c0.4-0.4,0.3-0.7-0.2-0.7h-11c-0.6,0-1.4,0.3-1.9,0.7L482,306c-0.4-1.9-0.6-3.9-0.6-5.9c0-17.1,13.9-31,31-31
	c12.3,0,22.9,7.2,27.9,17.6l-45.7,38.7C493.7,324.8,492.9,324.2,492.1,323.5 M512.4,331.1c-3.3,0-6.5-0.5-9.6-1.5l30-25.4l10.2,0
	C541.1,319.3,528.1,331.1,512.4,331.1 M541.1,298.6l-3.8,2.8l1.5-4.5l-3.8-2.8h4.7l1.5-4.5l1.5,4.5h4.7l-3.8,2.8l1.5,4.5
	L541.1,298.6z"/>
<path class="st0" d="M449,307.4c0,0-3.6-2.5-6.1-4.1c0.1-0.4,0.1-23.6,0.1-23.6c0-6.2-5-11.2-11.2-11.2h-10.6
	c-6.2,0-11.2,5-11.2,11.2v3.8h-7.9v-3.8c0-6.2-5-11.2-11.2-11.2H211.3c-2.9,0-8.2,0.3-11.4,3.2c0,0-13.3,11.1-23.7,19.8v-11.8
	c0-6.2-5-11.2-11.2-11.2l-86.5,0c-2.2,0-4.4,0.8-6.3,2c0,0-5,3.4-9.5,6.5c-4.6-3.1-9.6-6.5-9.6-6.5c-1.9-1.3-4.1-2-6.3-2H36.1
	c-6.2,0-11.2,5-11.2,11.2v36.9c0,4.7,3,9,7.5,10.5l10.6,3.7c3.4,1.2,7.2,0.7,10.2-1.4c3-2.1,4.7-5.5,4.7-9.1v-11
	c3,1.4,6.4,1.4,9.3,0v11c0,3.6,1.7,7,4.7,9.1c2.9,2.1,6.7,2.6,10.1,1.5l10.1-3.5l10,3.5c3.4,1.2,7.2,0.7,10.2-1.4
	c3-2.1,4.7-5.5,4.7-9.1v-7.1h9.3v7.1c0,3.6,1.7,7,4.7,9.1c2.9,2.1,6.7,2.6,10.1,1.5c0,0,9-3,9-3h25.5c2.6,0,5.2-0.9,7.2-2.6
	l17.1-14.5v6c0,6.2,5,11.2,11.2,11.2c0,0,57,0.1,57,0.1c0,0,8.5,3,8.5,3c3.4,1.2,7.2,0.7,10.2-1.4c3-2.1,4.7-5.5,4.7-9.1v-5.5
	c6,4.1,16.3,11.1,16.3,11.1c1.9,1.3,4.1,2,6.3,1.9l14.5-0.1c0.3,0,0.5,0,0.7-0.1c0.4,0,2.2,0.1,2.6,0.1h46.1c0.1,0,7.8,3.1,7.8,3.1
	c3.4,1.2,8.6,0.6,11.6-1.5c2.9-2.1,4.7-5.5,4.7-9.1v-7.8l19.7,13.4c1.9,1.3,4.1,1.9,6.3,1.9h14.5c4.9,0,9.2-3.2,10.7-7.9
	c0.3-1.1,0.5-2.2,0.5-3.3C453.9,313,452.1,309.5,449,307.4"/>
<path class="st1" d="M78.4,280.4l-15.8,10.8l-15.9-10.8v-0.1H36.1v36.9l10.6,3.7v-31.8l15.9,10.8l15.8-10.7v31.7l10.6-3.7v-36.9
	L78.4,280.4L78.4,280.4z M164.9,309.8v-29.5h-10.6v36.9h21.5l31.8-27v-9.9l-35.2,29.5H164.9z M221.8,302.7h35l7.3-7.3v-0.1h-42.3
	v-7.6h42.3v-7.4h-52.9v36.9l52.9,0.1v-7.4h-42.3V302.7z M332.1,287.7h16v22.1h-16v7.4h42.4v-7.4h-15.9v-22.1h15.9l0-7.4H332
	L332.1,287.7z M421.2,302.6l10.7,0v-22.3h-10.6v14.9H391v-14.9h-10.6v36.9l10.6,3.7v-18.2h15.8l21.4,14.6h14.5L421.2,302.6z
	 M95.3,317.1l10.6,3.7v-18.2h31.7v18.2l10.6-3.7v-36.9H95.3V317.1z M105.8,287.6h31.7v7.6h-31.7V287.6z M322.7,302.6l0-22.3h-52.9
	v15l-7.2,7.2v0.1h7.2v14.5l10.6,3.7v-18.3h12.3l21.5,14.6l14.5,0l-21.3-14.6H322.7z M280.4,287.6h31.7v7.6h-31.7V287.6z"/>
<path class="st0" d="M566.2,319.3h0.6c0.9,0,1.4,0,1.6,0.1c0.2,0.1,0.4,0.2,0.5,0.3s0.2,0.3,0.2,0.5c0,0.2-0.1,0.4-0.2,0.5
	c-0.1,0.1-0.3,0.3-0.5,0.3c-0.2,0.1-0.8,0.1-1.6,0.1h-0.6V319.3z M566.2,324.9v-2.7h0.4c0.4,0,0.8,0.1,1.1,0.3
	c0.3,0.2,0.6,0.6,1.1,1.4l0.6,1.1h1.9l-0.9-1.3c-0.3-0.5-0.5-0.7-0.6-0.8c-0.2-0.2-0.4-0.4-0.5-0.5s-0.3-0.2-0.5-0.2
	c0.6-0.1,1.1-0.3,1.5-0.6c0.4-0.3,0.5-0.8,0.5-1.2c0-0.3-0.1-0.7-0.3-1c-0.2-0.3-0.4-0.5-0.7-0.6s-0.7-0.2-1.2-0.3c-0.2,0-1,0-2.4,0
	h-1.5v6.7H566.2z M570.7,317.1c0.9,0.4,1.6,1.1,2.1,1.9c0.5,0.8,0.8,1.7,0.8,2.5c0,0.9-0.3,1.7-0.8,2.5c-0.5,0.8-1.2,1.4-2.1,1.9
	c-0.9,0.4-1.8,0.7-2.8,0.7c-1,0-1.9-0.2-2.8-0.7c-0.9-0.4-1.6-1.1-2.1-1.9c-0.5-0.8-0.8-1.6-0.8-2.5c0-0.9,0.3-1.7,0.8-2.5
	c0.5-0.8,1.2-1.4,2.1-1.9c0.9-0.4,1.8-0.6,2.8-0.6C568.8,316.5,569.8,316.7,570.7,317.1 M564.3,316.1c-1.1,0.5-2,1.3-2.6,2.3
	c-0.6,1-1,2.1-1,3.2c0,1.1,0.3,2.1,0.9,3.1c0.6,1,1.5,1.8,2.6,2.3c1.1,0.6,2.3,0.8,3.5,0.8c1.2,0,2.4-0.3,3.5-0.8
	c1.1-0.6,2-1.3,2.6-2.3s0.9-2,0.9-3.1c0-1.1-0.3-2.1-1-3.2c-0.6-1-1.5-1.8-2.6-2.3c-1.1-0.5-2.3-0.8-3.5-0.8
	C566.6,315.3,565.5,315.5,564.3,316.1"/>
</svg>
